<svg width="48" height="48" viewBox="0 0 48 48" fill="none" xmlns="http://www.w3.org/2000/svg">
<path fill-rule="evenodd" clip-rule="evenodd" d="M33.0373 10.4766C30.3622 8.68918 27.2172 7.73516 24 7.73516C19.6871 7.73939 15.5521 9.45456 12.5024 12.5042C9.45273 15.5539 7.73757 19.6889 7.73333 24.0018C7.73333 27.2191 8.68736 30.3641 10.4748 33.0391C12.2622 35.7141 14.8027 37.7991 17.775 39.0303C20.7474 40.2615 24.018 40.5836 27.1735 39.9559C30.3289 39.3283 33.2273 37.779 35.5023 35.5041C37.7772 33.2292 39.3264 30.3307 39.9541 27.1753C40.5818 24.0199 40.2596 20.7492 39.0284 17.7768C37.7973 14.8045 35.7123 12.264 33.0373 10.4766ZM13.1849 7.81588C16.3862 5.67686 20.1499 4.53516 24 4.53516C29.1629 4.53516 34.1143 6.5861 37.765 10.2368C41.4157 13.8875 43.4667 18.8389 43.4667 24.0018C43.4667 27.852 42.325 31.6156 40.1859 34.8169C38.0469 38.0182 35.0066 40.5133 31.4496 41.9867C27.8925 43.4601 23.9784 43.8456 20.2022 43.0944C16.4261 42.3433 12.9574 40.4893 10.235 37.7668C7.51253 35.0444 5.65851 31.5757 4.90738 27.7996C4.15625 24.0234 4.54176 20.1093 6.01515 16.5523C7.48853 12.9952 9.98362 9.95491 13.1849 7.81588ZM25.6919 21.467C25.1911 21.1324 24.6023 20.9538 24 20.9538C23.1925 20.9545 22.4184 21.2756 21.8474 21.8465C21.2764 22.4175 20.9554 23.1916 20.9547 23.9991C20.9547 24.6014 21.1333 25.1902 21.4679 25.691C21.8025 26.1918 22.2781 26.5821 22.8346 26.8126C23.3911 27.0431 24.0034 27.1034 24.5941 26.9859C25.1849 26.8684 25.7275 26.5784 26.1534 26.1525C26.5793 25.7266 26.8693 25.184 26.9868 24.5932C27.1043 24.0025 27.044 23.3902 26.8135 22.8337C26.583 22.2772 26.1927 21.8016 25.6919 21.467ZM20.8266 19.2498C21.7659 18.6221 22.8703 18.2871 24 18.2871C25.5143 18.2892 26.9659 18.8917 28.0367 19.9625C29.1074 21.0332 29.7099 22.4848 29.712 23.9991C29.712 25.1288 29.377 26.2332 28.7494 27.1725C28.1217 28.1119 27.2296 28.844 26.1859 29.2763C25.1422 29.7086 23.9937 29.8217 22.8856 29.6013C21.7776 29.3809 20.7598 28.8369 19.961 28.0381C19.1622 27.2393 18.6182 26.2215 18.3978 25.1135C18.1774 24.0054 18.2905 22.8569 18.7228 21.8132C19.1551 20.7695 19.8873 19.8774 20.8266 19.2498ZM24 15.7917C26.816 15.7917 27.1787 15.7917 28.2667 15.853C28.8864 15.8616 29.5003 15.9743 30.0827 16.1863C30.4768 16.3378 30.8348 16.5704 31.1334 16.869C31.432 17.1675 31.6645 17.5255 31.816 17.9197C32.028 18.5021 32.1407 19.1159 32.1493 19.7357C32.1973 20.8237 32.2107 21.1863 32.2107 24.0023C32.2107 26.8183 32.1973 27.181 32.1493 28.269C32.1407 28.8887 32.028 29.5026 31.816 30.085C31.6645 30.4792 31.432 30.8371 31.1334 31.1357C30.8348 31.4343 30.4768 31.6669 30.0827 31.8183C29.5003 32.0304 28.8864 32.143 28.2667 32.1517C27.176 32.1997 26.8107 32.213 24 32.213C21.1893 32.213 20.824 32.1997 19.7333 32.1517C19.1136 32.143 18.4997 32.0304 17.9173 31.8183C17.5232 31.6669 17.1652 31.4343 16.8666 31.1357C16.568 30.8371 16.3355 30.4792 16.184 30.085C15.972 29.5026 15.8593 28.8887 15.8507 28.269C15.8027 27.181 15.7893 26.8157 15.7893 24.0023C15.7893 21.189 15.7893 20.8237 15.8507 19.7357C15.8593 19.1159 15.972 18.5021 16.184 17.9197C16.3355 17.5255 16.568 17.1675 16.8666 16.869C17.1652 16.5704 17.5232 16.3378 17.9173 16.1863C18.4997 15.9743 19.1136 15.8616 19.7333 15.853C20.8213 15.805 21.184 15.7917 24 15.7917ZM24 13.125C21.1253 13.125 20.7467 13.125 19.6107 13.189C18.6993 13.2089 17.7979 13.382 16.944 13.701C16.2049 13.9865 15.5336 14.4234 14.9733 14.9837C14.4131 15.544 13.9762 16.2152 13.6907 16.9543C13.3716 17.8082 13.1985 18.7097 13.1787 19.621C13.128 20.7597 13.1147 21.1357 13.1147 24.0103V24.0105C13.1147 26.885 13.1147 27.261 13.1787 28.3997C13.1985 29.311 13.3716 30.2125 13.6907 31.0663C13.9762 31.8055 14.4131 32.4767 14.9733 33.037C15.5336 33.5972 16.2049 34.0342 16.944 34.3197C17.7979 34.6387 18.6993 34.8118 19.6107 34.8317C20.752 34.8823 21.128 34.8957 24 34.8957C26.872 34.8957 27.248 34.8957 28.3893 34.8317C29.3006 34.8118 30.2021 34.6387 31.056 34.3197C31.7951 34.0342 32.4664 33.5972 33.0266 33.037C33.5869 32.4767 34.0238 31.8055 34.3093 31.0663C34.6284 30.2125 34.8015 29.311 34.8213 28.3997C34.872 27.2637 34.8853 26.885 34.8853 24.0103C34.8853 21.1357 34.8853 20.757 34.8213 19.621C34.8015 18.7097 34.6284 17.8082 34.3093 16.9543C34.0238 16.2152 33.5869 15.544 33.0266 14.9837C32.4664 14.4234 31.7951 13.9865 31.056 13.701C30.2021 13.382 29.3006 13.2089 28.3893 13.189C27.2533 13.1383 26.8747 13.125 24 13.125ZM28.8123 17.0566C29.0653 16.888 29.3626 16.7983 29.6667 16.7988C30.0729 16.8002 30.4621 16.9622 30.7493 17.2495C31.0366 17.5367 31.1986 17.9259 31.2 18.3322C31.2005 18.6362 31.1108 18.9335 30.9422 19.1865C30.7737 19.4395 30.5338 19.6368 30.253 19.7534C29.9723 19.87 29.6632 19.9006 29.365 19.8415C29.0668 19.7823 28.7929 19.6359 28.5779 19.421C28.3629 19.206 28.2166 18.932 28.1574 18.6338C28.0982 18.3356 28.1289 18.0266 28.2454 17.7458C28.362 17.465 28.5593 17.2252 28.8123 17.0566Z"/>
</svg>
