<svg xmlns="http://www.w3.org/2000/svg" viewBox="0 0 70.2 100"><title>Clipboard Icons</title>
						<path d="M63.4 59.8l-6-4.1c.1-1.9-1.3-3.6-3.2-3.9-2-.3-3.9 1.2-4.2 3.2-.1.6 0 1.2.2 1.7l-14.7 15c-.4-.2-.8-.3-1.2-.4-.7-.1-1.3 0-1.9.3L25.9 65c0-.1.1-.3.1-.4.3-2-1.2-3.9-3.2-4.2-2-.3-3.9 1.2-4.2 3.2v.6L7 70.5l1.6 3 11.6-6.4c.5.3 1 .5 1.6.6.6.1 1.3 0 1.9-.2l6.5 6.7c0 .1-.1.3-.1.4-.3 2 1.2 3.9 3.2 4.2 2 .3 3.9-1.2 4.2-3.2v-1l15.1-15.3c.2.1.4.1.6.1.9.1 1.8-.1 2.5-.6l5.8 3.9 1.9-2.9z"></path>
						<path d="M59.6 88.4c0 .6-.5 1.2-1.2 1.2h-5.3c-.6 0-1.2-.5-1.2-1.2V67.7c0-.6.5-1.2 1.2-1.2h5.3c.6 0 1.2.5 1.2 1.2v20.7zM46.1 88.4c0 .6-.5 1.2-1.2 1.2h-5.3c-.6 0-1.2-.5-1.2-1.2V77.5c0-.6.5-1.2 1.2-1.2h5.3c.6 0 1.2.5 1.2 1.2v10.9zM32.6 88.4c0 .6-.5 1.2-1.2 1.2h-5.3c-.6 0-1.2-.5-1.2-1.2v-2.9c0-.6.5-1.2 1.2-1.2h5.3c.6 0 1.2.5 1.2 1.2v2.9zM19.1 88.4c0 .6-.5 1.2-1.2 1.2h-5.3c-.6 0-1.2-.5-1.2-1.2v-7.6c0-.6.5-1.2 1.2-1.2h5.3c.6 0 1.2.5 1.2 1.2v7.6zM57.6 27.9h-45v-7.2h45M57.6 41.7h-45v-7.2h45M38.2 55.7H12.8v-7.2h25.4M21.6 13.7c-1 0-1.7-.8-1.7-1.7V8.2c0-1 .8-1.7 1.7-1.7h4.1V1.7c0-1 .8-1.7 1.7-1.7h15.4c1 0 1.7.8 1.7 1.7v4.7h4.1c.5 0 .9.2 1.2.5.3.3.5.8.5 1.2V12c0 1-.8 1.7-1.7 1.7h-27z"></path>
						<path d="M5.1 100C2.3 100 0 97.7 0 94.9V13.2c0-2.8 2.3-5.1 5.1-5.1h7v3.2H3.4l-.2 83.6c0 1 .8 1.8 1.8 1.8h60.1c1 0 1.8-.8 1.8-1.8V11.5h-8.8V8.2h7c1.3 0 2.6.5 3.6 1.5s1.5 2.2 1.5 3.6V95c0 2.8-2.3 5.1-5.1 5.1h-60z"></path>
					</svg>