<svg xmlns="http://www.w3.org/2000/svg" width="180" height="41" fill="none"><path fill="#C8AA22" d="M42.352 18.979c0-4.491-1.398-8.655-3.783-12.082l-4.02 8.572c.295 1.132.448 2.309.448 3.51 0 3.692-1.438 7.163-4.048 9.774a13.828 13.828 0 0 1-3.926 2.759l-.075.034a13.777 13.777 0 0 1-5.772 1.256 13.773 13.773 0 0 1-5.847-1.29 13.827 13.827 0 0 1-3.926-2.759 13.734 13.734 0 0 1-4.048-9.774c0-1.201.154-2.378.449-3.51L3.783 6.897A21.082 21.082 0 0 0 0 18.979c0 11.697 9.48 21.18 21.176 21.18 11.695 0 21.176-9.483 21.176-21.18Zm-9.046-6.636 3.56-7.588a21.252 21.252 0 0 0-5.97-4.596L27.77 6.824 26.726 9.05l-5.55 11.831-5.55-11.83-1.044-2.227L11.455.16a21.254 21.254 0 0 0-5.968 4.596l3.559 7.588 1.376 2.933 4.095 8.73 2.633 5.613c1.27.48 2.628.73 4.026.73 1.398 0 2.757-.25 4.027-.73l2.632-5.613 4.095-8.73 1.376-2.933ZM58.04 30.954l3.305-8.984H59.55l-2.346 6.713-2.345-6.713h-1.921l3.306 8.984h1.796Zm7.952.056a9.31 9.31 0 0 0 1.242-.255v-1.548a5.94 5.94 0 0 1-1.067.294c-.387.07-.763.106-1.129.106-.64 0-1.116-.131-1.428-.393-.312-.262-.498-.701-.556-1.317h4.492v-.536c0-2.53-1.036-3.794-3.107-3.794-1.04 0-1.83.323-2.37.968-.541.644-.811 1.586-.811 2.826 0 1.28.282 2.225.848 2.832.566.607 1.443.911 2.633.911.39 0 .808-.031 1.253-.093Zm-.642-5.59c.208.237.34.635.4 1.192h-2.696c.058-.566.194-.965.406-1.198.212-.233.534-.35.967-.35.407 0 .715.12.923.356Zm5.414 5.534v-5.09c.308-.175.618-.3.93-.375a4.52 4.52 0 0 1 1.054-.112c.208 0 .42.012.636.037v-1.697a2.544 2.544 0 0 0-.462-.037c-.399 0-.769.064-1.11.193-.341.13-.728.356-1.16.68l-.075-.836h-1.56v7.237h1.747Zm5.427 0v-5.378c.45-.224.89-.337 1.322-.337.341 0 .582.088.724.263.141.174.212.445.212.81v4.642h1.747v-4.953c0-.142-.009-.279-.025-.412.457-.233.906-.35 1.347-.35.341 0 .582.088.724.263.141.174.212.445.212.81v4.642H84.2v-4.953c0-.583-.104-1.05-.312-1.404a1.875 1.875 0 0 0-.804-.768 2.35 2.35 0 0 0-1.03-.237c-.39 0-.773.07-1.147.206a5.016 5.016 0 0 0-1.148.618 1.723 1.723 0 0 0-.755-.63 2.387 2.387 0 0 0-.942-.194c-.34 0-.675.059-1.004.175a5.032 5.032 0 0 0-1.004.5l-.05-.55h-1.56v7.237h1.747Zm15.994-3.618c0-2.512-1.094-3.768-3.282-3.768-2.187 0-3.28 1.256-3.28 3.768 0 2.512 1.093 3.768 3.28 3.768 2.188 0 3.282-1.256 3.282-3.768Zm-4.436 1.697c-.228-.333-.343-.899-.343-1.697 0-.799.115-1.364.343-1.697.23-.333.614-.5 1.154-.5.541 0 .926.167 1.154.5.23.333.344.898.344 1.697 0 .798-.115 1.364-.343 1.697-.23.333-.614.499-1.155.499-.54 0-.925-.166-1.154-.5Zm.768-6.214v-1.622h-1.872v1.622h1.872Zm2.645 0v-1.622H89.29v1.622h1.872Zm8.57 3.394c0-.782-.27-1.323-.81-1.622l1.559-.013v-1.273l-3.618.325h-.2c-2.104 0-3.156.82-3.156 2.458 0 .898.3 1.551.898 1.959-.3.191-.516.397-.649.618-.133.22-.2.476-.2.767 0 .474.18.836.537 1.086-.732.39-1.097.91-1.097 1.56 0 .698.286 1.216.86 1.553.574.337 1.452.505 2.633.505.948 0 1.71-.081 2.289-.243.578-.162.998-.42 1.26-.774.262-.353.393-.817.393-1.391 0-.474-.096-.857-.287-1.148-.192-.291-.514-.516-.967-.674-.453-.158-1.075-.266-1.865-.324l-1.56-.125c-.448-.033-.673-.208-.673-.524 0-.2.083-.366.25-.5.374.092.814.138 1.322.138 2.054 0 3.081-.786 3.081-2.358Zm-4.11.711c-.204-.166-.306-.437-.306-.811 0-.374.104-.649.312-.824.208-.174.54-.262.998-.262.457 0 .792.088 1.004.262.212.175.318.45.318.824 0 .374-.106.645-.318.811-.212.166-.551.25-1.017.25-.457 0-.788-.084-.992-.25Zm-.618 3.955c.216.042.466.075.748.1l1.56.125c.524.042.877.112 1.06.212.183.1.275.279.275.537 0 .233-.063.413-.187.543-.125.129-.341.22-.649.274-.308.054-.74.081-1.298.081-.681 0-1.17-.079-1.465-.237-.296-.158-.443-.416-.443-.774a1.1 1.1 0 0 1 .399-.86Zm11.035.131a9.347 9.347 0 0 0 1.241-.255v-1.548c-.324.125-.68.223-1.067.294-.386.07-.763.106-1.129.106-.64 0-1.116-.131-1.428-.393-.312-.262-.497-.701-.555-1.317h4.491v-.536c0-2.53-1.036-3.794-3.107-3.794-1.039 0-1.829.323-2.37.968-.541.644-.811 1.586-.811 2.826 0 1.28.283 2.225.848 2.832.566.607 1.443.911 2.633.911.391 0 .808-.031 1.254-.093Zm-.643-5.59c.208.237.341.635.399 1.192h-2.694c.058-.566.193-.965.405-1.198.212-.233.534-.35.967-.35.407 0 .715.12.923.356Zm5.439 5.534v-5.353c.508-.24.998-.361 1.473-.361.374 0 .646.087.817.262.17.174.255.453.255.835v4.617h1.747v-4.953c0-.766-.202-1.358-.605-1.778-.404-.42-.963-.63-1.678-.63-.349 0-.697.056-1.042.168-.345.112-.713.289-1.104.53l-.05-.574h-1.559v7.237h1.746Zm10.573-.399c.479-.366.718-.936.718-1.71 0-.656-.16-1.164-.481-1.522-.32-.357-.842-.603-1.565-.736l-.936-.175c-.482-.083-.723-.316-.723-.698 0-.233.095-.4.287-.5.191-.1.503-.15.935-.15.374 0 .747.036 1.117.107.37.07.709.168 1.017.293v-1.547a7.214 7.214 0 0 0-2.196-.35c-.998 0-1.741.184-2.227.55-.487.366-.73.931-.73 1.697 0 .623.162 1.108.487 1.453.324.345.848.589 1.572.73l.935.175c.482.083.724.316.724.699 0 .258-.096.445-.287.561-.192.117-.508.175-.948.175-.399 0-.813-.036-1.242-.106-.428-.071-.8-.16-1.116-.269v1.535c.391.108.798.191 1.223.25.424.058.831.087 1.222.087.998 0 1.736-.183 2.214-.549Zm3.687.4.05-.575c.399.258.752.44 1.06.543.308.104.632.156.973.156.899 0 1.585-.32 2.059-.96.474-.641.711-1.569.711-2.783 0-1.215-.237-2.142-.711-2.783-.474-.64-1.16-.96-2.059-.96-.324 0-.632.045-.923.137-.291.091-.615.25-.973.474v-3.12l-1.746.15v9.72h1.559Zm2.738-5.254c.221.325.331.87.331 1.635s-.11 1.31-.331 1.634c-.22.325-.597.487-1.129.487-.224 0-.449-.029-.673-.087a3.649 3.649 0 0 1-.749-.3v-3.469a3.67 3.67 0 0 1 .749-.3c.224-.057.449-.086.673-.086.532 0 .909.162 1.129.486Zm8.035 5.31a9.347 9.347 0 0 0 1.241-.256v-1.548c-.324.125-.68.223-1.067.294-.387.07-.763.106-1.129.106-.64 0-1.116-.131-1.428-.393-.312-.262-.497-.701-.555-1.317h4.491v-.536c0-2.53-1.036-3.794-3.107-3.794-1.039 0-1.829.323-2.37.968-.541.644-.811 1.586-.811 2.826 0 1.28.283 2.225.848 2.832.566.607 1.443.911 2.633.911.391 0 .809-.031 1.254-.093Zm-.643-5.59c.208.236.341.634.399 1.191h-2.694c.058-.566.193-.965.405-1.198.212-.233.534-.35.967-.35.407 0 .715.12.923.356Zm5.564 5.533v-5.09c.308-.175.618-.3.929-.375a4.528 4.528 0 0 1 1.055-.112c.208 0 .42.012.636.037v-1.697a2.543 2.543 0 0 0-.462-.037c-.399 0-.769.064-1.11.193-.341.13-.728.356-1.16.68l-.075-.836h-1.559v7.237h1.746Zm6.388-.043a5.3 5.3 0 0 0 1.147-.556l.05.6h1.56v-4.742c0-.94-.235-1.616-.705-2.028-.47-.412-1.238-.617-2.302-.617-.358 0-.755.03-1.191.093a9.93 9.93 0 0 0-1.204.243v1.535a5.347 5.347 0 0 1 1.06-.262 7.81 7.81 0 0 1 1.148-.087c.507 0 .877.09 1.11.268.233.18.349.464.349.855v.624a7.847 7.847 0 0 0-.804-.119 7.794 7.794 0 0 0-.68-.031c-.948 0-1.647.18-2.096.543-.449.362-.674.93-.674 1.703 0 .707.183 1.241.549 1.603.366.362.903.543 1.61.543a3.49 3.49 0 0 0 1.073-.168Zm-1.204-2.727c.17-.133.447-.2.829-.2.183 0 .397.015.643.044.245.03.497.069.754.119v1.06c-.357.159-.665.27-.923.337s-.495.1-.711.1c-.566 0-.848-.274-.848-.823 0-.292.085-.504.256-.637Zm10.448 2.62v-1.497a6.214 6.214 0 0 1-.699.181 3.287 3.287 0 0 1-.611.056c-.349 0-.591-.076-.724-.23-.133-.154-.199-.427-.199-.818v-3.244h2.233v-1.535h-2.233V21.97l-1.747.163v1.584h-1.422v1.535h1.422v3.444c0 .84.175 1.447.524 1.821.35.375.919.562 1.709.562.582 0 1.165-.091 1.747-.274Zm5.689-.424.05.574h1.559v-7.237h-1.747v5.366c-.474.233-.935.35-1.384.35-.358 0-.62-.088-.786-.263-.167-.175-.25-.453-.25-.836v-4.617h-1.746v4.954c0 .757.197 1.347.592 1.772.395.424.938.636 1.628.636.665 0 1.36-.233 2.084-.699Zm5.039.574v-5.353c.508-.24.999-.361 1.473-.361.374 0 .647.087.817.262.17.174.255.453.255.835v4.617h1.747v-4.953c0-.766-.202-1.358-.605-1.778-.404-.42-.962-.63-1.678-.63-.349 0-.696.056-1.042.168a5.17 5.17 0 0 0-1.103.53l-.051-.574h-1.559v7.237h1.746Zm12.102-4.741c0-.782-.271-1.323-.81-1.622l1.559-.013v-1.273l-3.618.325h-.199c-2.105 0-3.157.82-3.157 2.458 0 .898.299 1.551.899 1.959-.301.191-.518.397-.65.618-.133.22-.2.476-.2.767 0 .474.179.836.538 1.086-.732.39-1.098.91-1.098 1.56 0 .698.285 1.216.861 1.553.573.337 1.451.505 2.631.505.949 0 1.711-.081 2.29-.243.577-.162.997-.42 1.26-.774.262-.353.393-.817.393-1.391 0-.474-.096-.857-.288-1.148-.191-.291-.514-.516-.966-.674-.453-.158-1.075-.266-1.865-.324l-1.56-.125c-.448-.033-.674-.208-.674-.524 0-.2.084-.366.25-.5a5.61 5.61 0 0 0 1.322.138c2.055 0 3.082-.786 3.082-2.358Zm-4.111.711c-.203-.166-.306-.437-.306-.811 0-.374.105-.649.312-.824.209-.174.542-.262.999-.262.458 0 .792.088 1.003.262.213.175.32.45.32.824 0 .374-.107.645-.32.811-.211.166-.551.25-1.016.25-.457 0-.788-.084-.992-.25Zm-.618 3.955c.217.042.467.075.749.1l1.56.125c.524.042.877.112 1.06.212.183.1.275.279.275.537 0 .233-.064.413-.187.543-.125.129-.342.22-.65.274-.308.054-.739.081-1.296.081-.683 0-1.171-.079-1.466-.237-.295-.158-.443-.416-.443-.774 0-.34.133-.628.398-.86ZM57.016 15.998c1.007 0 1.822-.152 2.446-.456.623-.303 1.079-.786 1.366-1.447.287-.661.43-1.524.43-2.59 0-1.064-.143-1.927-.43-2.588-.287-.662-.743-1.144-1.366-1.448-.624-.303-1.44-.455-2.446-.455h-3.38v8.984h3.38ZM55.432 8.51h1.584c.624 0 1.11.094 1.46.28.35.188.597.5.742.937.146.436.219 1.029.219 1.778 0 .748-.073 1.341-.219 1.778-.145.436-.393.748-.742.936-.35.187-.836.28-1.46.28h-1.584V8.511Zm11.833 7.543a9.298 9.298 0 0 0 1.242-.256v-1.547c-.325.125-.68.223-1.067.293-.387.07-.763.106-1.13.106-.64 0-1.116-.131-1.428-.393-.312-.262-.497-.7-.555-1.316h4.491v-.537c0-2.529-1.035-3.793-3.106-3.793-1.04 0-1.83.322-2.37.967-.541.645-.811 1.587-.811 2.826 0 1.281.282 2.225.848 2.832.566.608 1.443.912 2.632.912.391 0 .81-.032 1.254-.094Zm-.642-5.59c.207.237.34.634.399 1.191h-2.695c.058-.565.193-.964.406-1.197.212-.233.534-.35.966-.35.408 0 .716.119.924.356Zm7.847 4.96.05.574h1.56V8.76h-1.748v5.365c-.474.233-.935.35-1.384.35-.358 0-.62-.088-.786-.263-.167-.174-.25-.453-.25-.836V8.761h-1.747v4.953c0 .757.198 1.348.593 1.772.395.425.938.636 1.628.636.666 0 1.36-.232 2.084-.698Zm8.183.424v-1.497a6.245 6.245 0 0 1-.698.18c-.2.038-.403.057-.611.057-.35 0-.591-.077-.724-.231-.133-.154-.2-.426-.2-.817v-3.245h2.233V8.761H80.42V7.014l-1.746.162v1.585h-1.422v1.534h1.422v3.444c0 .84.174 1.448.524 1.822.35.374.919.561 1.709.561.582 0 1.164-.091 1.746-.274Zm6.057-.25c.479-.365.718-.935.718-1.709 0-.657-.16-1.164-.48-1.522-.32-.358-.843-.603-1.566-.737l-.936-.174c-.483-.083-.724-.316-.724-.699 0-.233.096-.4.288-.5.19-.099.502-.149.935-.149.374 0 .747.036 1.117.106.37.071.709.169 1.016.293V8.96a7.211 7.211 0 0 0-2.195-.35c-.998 0-1.74.184-2.227.55-.487.366-.73.932-.73 1.697 0 .624.162 1.108.486 1.454.325.345.849.588 1.572.73l.936.174c.482.084.724.316.724.699 0 .258-.096.445-.287.562-.192.116-.508.174-.948.174-.4 0-.813-.035-1.242-.106-.428-.07-.8-.16-1.116-.268v1.534c.39.109.798.192 1.222.25.425.058.832.088 1.223.088.998 0 1.736-.183 2.214-.55Zm5.808.518a5.69 5.69 0 0 0 .605-.106c.22-.05.488-.12.804-.212v-1.597c-.457.141-.809.24-1.054.293a3.322 3.322 0 0 1-.717.081c-.632 0-1.096-.176-1.391-.53-.296-.354-.443-.909-.443-1.666 0-.765.135-1.323.406-1.672.27-.35.7-.524 1.29-.524.641 0 1.273.112 1.897.337V8.923a6.196 6.196 0 0 0-.998-.244 6.921 6.921 0 0 0-1.01-.068c-2.246 0-3.37 1.256-3.37 3.768 0 1.29.275 2.24.824 2.851.55.612 1.402.918 2.558.918.216 0 .416-.011.599-.032Zm4.578-.118v-5.353c.507-.241.998-.362 1.472-.362.375 0 .647.087.818.262.17.175.255.453.255.836v4.617h1.747v-4.954c0-.765-.202-1.358-.605-1.778-.404-.42-.963-.63-1.678-.63-.641 0-1.31.208-2.009.624V6.128l-1.746.15v9.72h1.746Zm10.399.056a9.33 9.33 0 0 0 1.241-.256v-1.547c-.324.125-.68.223-1.067.293-.386.07-.763.106-1.129.106-.64 0-1.116-.131-1.428-.393-.312-.262-.497-.7-.555-1.316h4.491v-.537c0-2.529-1.036-3.793-3.107-3.793-1.039 0-1.829.322-2.37.967-.541.645-.811 1.587-.811 2.826 0 1.281.283 2.225.848 2.832.566.608 1.443.912 2.633.912.391 0 .809-.032 1.254-.094Zm-.643-5.59c.208.237.341.634.399 1.191h-2.694c.058-.565.193-.964.405-1.197.212-.233.534-.35.967-.35.407 0 .715.119.923.356Z"/></svg>