<?xml version="1.0" encoding="utf-8"?>
<!-- Generator: Adobe Illustrator 25.0.1, SVG Export Plug-In . SVG Version: 6.00 Build 0)  -->
<svg version="1.1" id="Logo" xmlns="http://www.w3.org/2000/svg" xmlns:xlink="http://www.w3.org/1999/xlink" x="0px" y="0px"
	 viewBox="0 0 240.94489 56.69291" style="enable-background:new 0 0 240.94489 56.69291;" xml:space="preserve">
<style type="text/css">
	.st0{fill:#C8AA22;}
</style>
<g>
	<path class="st0" d="M56.69189,28.34684c0-6.01091-1.87223-11.58407-5.06367-16.1705l-5.38241,11.47258
		c0.39524,1.51522,0.60023,3.0907,0.60023,4.69792c0,4.94168-1.92447,9.58736-5.41867,13.08155
		c-1.54972,1.54999-3.32669,2.79021-5.25492,3.69146c-0.03324,0.0155-0.0665,0.03024-0.09975,0.04575
		c-2.3922,1.10048-5.01467,1.68148-7.72663,1.68148c-2.72171,0-5.35292-0.585-7.75187-1.69323
		c-0.02501-0.01126-0.04976-0.0225-0.07451-0.034c-1.92846-0.90124-3.70519-2.14147-5.25516-3.69146
		c-3.4942-3.49419-5.41867-8.13987-5.41867-13.08155c0-1.60722,0.20524-3.1827,0.60049-4.69792L5.06392,12.17634
		C1.87222,16.76277,0,22.33593,0,28.34684c0,15.65527,12.6908,28.34608,28.34607,28.34608
		C44.00109,56.69291,56.69189,44.00211,56.69189,28.34684L56.69189,28.34684z M44.58308,19.46573l4.76468-10.15585
		c-2.26472-2.49696-4.96868-4.58743-7.98988-6.15116l-4.18544,8.92112l0,0l-1.39748,2.9787l-7.42889,15.83451l-7.42913-15.83451
		l-1.39749-2.9787l0,0l-4.18543-8.92112c-3.02096,1.56373-5.72516,3.6542-7.98988,6.15116l4.76468,10.15585l1.84172,3.92519
		l5.48168,11.68407l3.52395,7.51139c1.69947,0.64223,3.51869,0.97849,5.38991,0.97849c1.87097,0,3.6902-0.33625,5.38967-0.97849
		l3.52395-7.51139l5.48192-11.68407L44.58308,19.46573L44.58308,19.46573z"/>
	<path class="st0" d="M77.69032,44.3741l4.42544-12.02382h-2.40472l-3.13969,8.98462l-3.13945-8.98462h-2.57171l4.42542,12.02382
		H77.69032L77.69032,44.3741z M88.33617,44.44935c0.5955-0.0835,1.14948-0.1975,1.66173-0.34249v-2.07072
		c-0.43425,0.167-0.91023,0.298-1.42773,0.39249c-0.51774,0.09475-1.02174,0.142-1.51148,0.142
		c-0.85748,0-1.49447-0.1755-1.91196-0.52599c-0.4175-0.35075-0.6655-0.93798-0.74324-1.76197h6.0119v-0.71799
		c0-3.38445-1.38597-5.07668-4.15818-5.07668c-1.39199,0-2.44946,0.43149-3.17295,1.29423
		c-0.72399,0.86273-1.08549,2.12372-1.08549,3.78245c0,1.71447,0.37825,2.9782,1.13549,3.79069
		c0.75699,0.81299,1.93147,1.21923,3.5237,1.21923C87.18118,44.5746,87.74068,44.53284,88.33617,44.44935L88.33617,44.44935z
		 M87.47617,36.96771c0.27824,0.31749,0.4565,0.84924,0.53449,1.59498h-3.60719c0.07774-0.757,0.25875-1.29149,0.54274-1.60323
		c0.284-0.31149,0.71524-0.46749,1.29422-0.46749C86.78569,36.49197,87.19794,36.65046,87.47617,36.96771L87.47617,36.96771z
		 M94.72382,44.3741v-6.8134c0.41174-0.23375,0.82648-0.40075,1.24398-0.501c0.41749-0.10025,0.88773-0.15024,1.41122-0.15024
		c0.27825,0,0.562,0.0165,0.85175,0.05v-2.27121c-0.17826-0.03325-0.38424-0.05-0.618-0.05
		c-0.53423,0-1.02998,0.08625-1.48621,0.25875c-0.45675,0.17275-0.97424,0.47599-1.55298,0.91024l-0.10026-1.11899h-2.08746v9.68586
		H94.72382L94.72382,44.3741z M101.98796,44.3741v-7.19764c0.60125-0.3005,1.19124-0.45075,1.77023-0.45075
		c0.45625,0,0.77899,0.11676,0.96848,0.35075c0.18927,0.23374,0.284,0.59573,0.284,1.08548v6.21215h2.33797v-6.62965
		c0-0.18925-0.01125-0.373-0.03349-0.55124c0.61224-0.3115,1.21322-0.4675,1.80347-0.4675
		c0.45649,0,0.77923,0.11676,0.96873,0.35075c0.18925,0.23374,0.28375,0.59573,0.28375,1.08548v6.21215h2.33796v-6.62965
		c0-0.77924-0.13925-1.40548-0.41749-1.87873c-0.27825-0.47324-0.63725-0.81548-1.077-1.02723
		c-0.43998-0.21125-0.89925-0.31725-1.37772-0.31725c-0.52351,0-1.03548,0.092-1.53648,0.2755
		c-0.50098,0.18375-1.01324,0.45924-1.53623,0.82674c-0.26726-0.3895-0.60424-0.67049-1.01048-0.84324
		c-0.40649-0.1725-0.82648-0.259-1.26073-0.259c-0.45675,0-0.90474,0.078-1.34447,0.23375
		c-0.43975,0.15624-0.88774,0.37874-1.34423,0.66799l-0.06676-0.73474H99.65v9.68586H101.98796L101.98796,44.3741z
		 M123.39664,39.53117c0-3.36195-1.46397-5.04318-4.39193-5.04318c-2.92823,0-4.39195,1.68123-4.39195,5.04318
		c0,3.36245,1.46372,5.04342,4.39195,5.04342C121.93267,44.5746,123.39664,42.89363,123.39664,39.53117L123.39664,39.53117
		L123.39664,39.53117z M117.45996,41.80239c-0.30623-0.44525-0.45924-1.20248-0.45924-2.27121
		c0-1.06874,0.15301-1.82573,0.45924-2.27121c0.30601-0.44499,0.82101-0.66799,1.54475-0.66799
		c0.7235,0,1.23847,0.223,1.54473,0.66799c0.30598,0.44549,0.45924,1.20248,0.45924,2.27121
		c0,1.06873-0.15326,1.82597-0.45924,2.27121c-0.30626,0.4455-0.82124,0.66798-1.54473,0.66798
		C118.28098,42.47037,117.76597,42.24788,117.45996,41.80239L117.45996,41.80239z M118.48697,33.48602v-2.17097h-2.50498v2.17097
		H118.48697L118.48697,33.48602z M122.02741,33.48602v-2.17097h-2.50498v2.17097H122.02741L122.02741,33.48602z M133.49998,38.0282
		c0-1.04623-0.36201-1.77023-1.08548-2.17097l2.08746-0.01674v-1.70323l-4.84293,0.43425h-0.26724
		c-2.81671,0-4.22519,1.09673-4.22519,3.2897c0,1.20248,0.401,2.07647,1.20248,2.62195
		c-0.40073,0.25626-0.6905,0.53175-0.86848,0.82649c-0.17799,0.29524-0.267,0.6375-0.267,1.02724
		c0,0.63448,0.23924,1.11873,0.71798,1.45273c-0.97972,0.52349-1.46946,1.21923-1.46946,2.08747
		c0,0.93523,0.38396,1.62822,1.15224,2.07921c0.76823,0.45074,1.94272,0.67624,3.52367,0.67624
		c1.269,0,2.29048-0.1085,3.06422-0.32549c0.77374-0.21725,1.33598-0.56249,1.68674-1.03549
		c0.35071-0.47324,0.52597-1.09373,0.52597-1.86197c0-0.63474-0.12799-1.14648-0.384-1.53647
		c-0.25623-0.3895-0.68747-0.68999-1.29422-0.90175c-0.60699-0.21124-1.43898-0.35624-2.4967-0.43424l-2.08748-0.167
		c-0.60098-0.04425-0.90173-0.278-0.90173-0.70124c0-0.26725,0.11125-0.48975,0.334-0.66799
		c0.50099,0.1225,1.09099,0.1835,1.77022,0.1835C132.12476,41.1844,133.49998,40.13242,133.49998,38.0282L133.49998,38.0282
		L133.49998,38.0282z M127.99732,38.98018c-0.27299-0.22249-0.40925-0.58449-0.40925-1.08548
		c0-0.50099,0.13923-0.86848,0.4175-1.10223c0.27824-0.23375,0.72374-0.35075,1.33597-0.35075
		c0.61226,0,1.06049,0.117,1.3445,0.35075c0.28375,0.23375,0.42572,0.60124,0.42572,1.10223
		c0,0.501-0.14197,0.86299-0.42572,1.08548c-0.28401,0.22275-0.73773,0.334-1.36101,0.334
		C128.71257,39.31417,128.27007,39.20293,127.99732,38.98018L127.99732,38.98018z M127.17059,44.27385
		c0.2895,0.056,0.62349,0.10025,1.00198,0.13375l2.08748,0.167c0.70149,0.0555,1.17448,0.15025,1.41948,0.28374
		c0.24475,0.13374,0.36748,0.37299,0.36748,0.71824c0,0.3115-0.08348,0.55375-0.25047,0.72649
		c-0.16701,0.17249-0.45676,0.29475-0.86848,0.36725c-0.412,0.07224-0.99098,0.10849-1.73674,0.10849
		c-0.91298,0-1.56697-0.10574-1.96222-0.31724c-0.39524-0.21149-0.59274-0.55674-0.59274-1.03523
		C126.63634,44.96959,126.81432,44.58559,127.17059,44.27385L127.17059,44.27385L127.17059,44.27385z M141.94136,44.44935
		c0.59549-0.0835,1.14949-0.1975,1.66171-0.34249v-2.07072c-0.43423,0.167-0.91022,0.298-1.42798,0.39249
		c-0.51747,0.09475-1.02148,0.142-1.51123,0.142c-0.85747,0-1.49472-0.1755-1.9122-0.52599
		c-0.41727-0.35075-0.66525-0.93798-0.74298-1.76197h6.0119v-0.71799c0-3.38445-1.38623-5.07668-4.15819-5.07668
		c-1.39198,0-2.44946,0.43149-3.17296,1.29423c-0.724,0.86273-1.08548,2.12372-1.08548,3.78245
		c0,1.71447,0.37825,2.9782,1.13548,3.79069c0.75699,0.81299,1.93147,1.21923,3.5237,1.21923
		C140.78638,44.5746,141.34561,44.53284,141.94136,44.44935L141.94136,44.44935z M141.08136,36.96771
		c0.27826,0.31749,0.45651,0.84924,0.5345,1.59498h-3.60718c0.07773-0.757,0.25873-1.29149,0.54272-1.60323
		c0.28375-0.31149,0.71524-0.46749,1.29424-0.46749C140.39088,36.49197,140.80289,36.65046,141.08136,36.96771L141.08136,36.96771z
		 M148.36224,44.3741v-7.16414c0.679-0.32275,1.336-0.48425,1.97073-0.48425c0.50101,0,0.86549,0.11676,1.09372,0.35075
		c0.22801,0.23374,0.34227,0.60674,0.34227,1.11873v6.17891h2.33797v-6.62965c0-1.02423-0.27-1.81747-0.80975-2.37971
		c-0.54024-0.56224-1.28871-0.84349-2.24622-0.84349c-0.46748,0-0.93246,0.07524-1.39447,0.22549
		c-0.46201,0.15025-0.95474,0.387-1.47798,0.70974l-0.06676-0.76824h-2.08745v9.68586H148.36224L148.36224,44.3741z
		 M162.51529,43.83985c0.64001-0.48973,0.96024-1.25248,0.96024-2.28796c0-0.87924-0.21448-1.55848-0.64299-2.03748
		c-0.42874-0.47849-1.12724-0.80699-2.0957-0.98523l-1.25249-0.23375c-0.64574-0.11124-0.96873-0.42299-0.96873-0.93523
		c0-0.3115,0.12799-0.53424,0.38423-0.66799c0.256-0.1335,0.67351-0.20025,1.2525-0.20025c0.50098,0,0.99898,0.0475,1.49446,0.14175
		c0.49525,0.09475,0.94925,0.2255,1.36124,0.39249v-2.07072c-0.97998-0.31149-1.95972-0.46749-2.93919-0.46749
		c-1.336,0-2.32973,0.245-2.98097,0.73474c-0.65125,0.48999-0.97697,1.24698-0.97697,2.27121
		c0,0.83499,0.21724,1.48348,0.65123,1.94547c0.43427,0.46199,1.13573,0.78774,2.10423,0.97698l1.25247,0.23375
		c0.64549,0.1115,0.96872,0.42325,0.96872,0.93525c0,0.34523-0.12825,0.59573-0.38423,0.75148
		c-0.25626,0.15599-0.67924,0.23375-1.26924,0.23375c-0.53424,0-1.08823-0.04725-1.66147-0.142
		c-0.57347-0.09449-1.07173-0.21424-1.49472-0.35899v2.05396c0.52322,0.145,1.06873,0.256,1.63673,0.33399
		c0.56772,0.07775,1.11298,0.117,1.63646,0.117C160.88707,44.5746,161.87506,44.32985,162.51529,43.83985L162.51529,43.83985z
		 M167.44995,44.3741l0.06677-0.76823c0.53423,0.34523,1.00748,0.58748,1.41948,0.72647
		c0.41176,0.13925,0.84599,0.20875,1.30247,0.20875c1.20248,0,2.12097-0.42849,2.75546-1.28573
		c0.63474-0.85723,0.952-2.09846,0.952-3.72419c0-1.62523-0.31726-2.86646-0.952-3.72394
		c-0.63449-0.85724-1.55298-1.28598-2.75546-1.28598c-0.43423,0-0.84622,0.0615-1.23572,0.18375
		c-0.38976,0.12275-0.82399,0.334-1.30249,0.63449v-4.17493l-2.33795,0.20049V44.3741H167.44995L167.44995,44.3741z
		 M171.11542,37.34346c0.29501,0.43424,0.44249,1.16373,0.44249,2.18772c0,1.02448-0.14748,1.75347-0.44249,2.18772
		c-0.295,0.43425-0.79898,0.65124-1.51123,0.65124c-0.30074,0-0.60123-0.03875-0.90175-0.11674
		c-0.30074-0.07775-0.63472-0.2115-1.00197-0.40099v-4.64243c0.36725-0.18925,0.70123-0.32275,1.00197-0.40075
		c0.30052-0.07775,0.60101-0.117,0.90175-0.117C170.31644,36.69221,170.82042,36.90946,171.11542,37.34346L171.11542,37.34346z
		 M181.87,44.44935c0.59549-0.0835,1.14949-0.1975,1.66148-0.34249v-2.07072c-0.43399,0.167-0.91,0.298-1.42773,0.39249
		c-0.51773,0.09475-1.02147,0.142-1.51122,0.142c-0.85751,0-1.49472-0.1755-1.91223-0.52599
		c-0.41748-0.35075-0.66525-0.93798-0.74298-1.76197h6.0119v-0.71799c0-3.38445-1.38623-5.07668-4.15845-5.07668
		c-1.39171,0-2.4492,0.43149-3.17294,1.29423c-0.72372,0.86273-1.08548,2.12372-1.08548,3.78245
		c0,1.71447,0.37848,2.9782,1.13573,3.79069c0.75699,0.81299,1.93147,1.21923,3.5237,1.21923
		C180.71477,44.5746,181.27428,44.53284,181.87,44.44935L181.87,44.44935z M181.01003,36.96771
		c0.278,0.31749,0.45625,0.84924,0.53424,1.59498h-3.60695c0.07773-0.757,0.25876-1.29149,0.54276-1.60323
		c0.28374-0.31149,0.71498-0.46749,1.29422-0.46749C180.31952,36.49197,180.73152,36.65046,181.01003,36.96771L181.01003,36.96771z
		 M188.45792,44.3741v-6.8134c0.41173-0.23375,0.82648-0.40075,1.24397-0.501c0.4175-0.10025,0.88774-0.15024,1.41122-0.15024
		c0.27826,0,0.562,0.0165,0.85173,0.05v-2.27121c-0.17825-0.03325-0.38423-0.05-0.61798-0.05
		c-0.53424,0-1.02972,0.08625-1.48624,0.25875c-0.45673,0.17275-0.97423,0.47599-1.55298,0.91024l-0.10023-1.11899h-2.08748v9.68586
		H188.45792L188.45792,44.3741z M197.00803,44.3156c0.46748-0.15025,0.97949-0.39775,1.53624-0.74299l0.06674,0.80149h2.08748
		v-6.3459c0-1.25799-0.31451-2.16248-0.94348-2.71371c-0.62901-0.55099-1.65625-0.82649-3.08096-0.82649
		c-0.479,0-1.01048,0.04176-1.59499,0.12525c-0.58449,0.0835-1.12175,0.192-1.61147,0.3255v2.05421
		c0.42299-0.15575,0.89597-0.27274,1.41946-0.35075c0.52325-0.07774,1.03549-0.117,1.53624-0.117
		c0.67899,0,1.17447,0.11975,1.48647,0.359c0.31151,0.23975,0.4675,0.62099,0.4675,1.14399v0.83499
		c-0.40076-0.07775-0.75974-0.13075-1.07698-0.1585c-0.3175-0.02774-0.62099-0.04175-0.91023-0.04175
		c-1.26924,0-2.20447,0.242-2.80571,0.72624c-0.60101,0.48449-0.90176,1.24423-0.90176,2.27972
		c0,0.94624,0.24475,1.66147,0.73502,2.14572c0.48973,0.48449,1.20772,0.72649,2.15422,0.72649
		C196.06152,44.5411,196.54028,44.46609,197.00803,44.3156L197.00803,44.3156z M195.39629,40.6669
		c0.22827-0.17799,0.59851-0.26725,1.1105-0.26725c0.245,0,0.53174,0.0195,0.86024,0.0585
		c0.32823,0.03899,0.66498,0.09175,1.01022,0.1585v1.41948c-0.47876,0.21175-0.89073,0.362-1.23573,0.451
		c-0.34525,0.08925-0.66249,0.1335-0.95198,0.1335c-0.75723,0-1.13548-0.36724-1.13548-1.10223
		C195.05406,41.1289,195.16805,40.84491,195.39629,40.6669L195.39629,40.6669z M209.38234,44.17385v-2.00396
		c-0.35649,0.11125-0.66798,0.192-0.93523,0.242c-0.26726,0.05024-0.54001,0.07524-0.81825,0.07524
		c-0.4675,0-0.79073-0.10275-0.96849-0.309c-0.17822-0.20599-0.26723-0.57049-0.26723-1.09373v-4.34193h2.9892v-2.05422h-2.9892
		v-2.33797l-2.33797,0.21725v2.12072h-1.90372v2.05422h1.90372v4.60893c0,1.12473,0.23375,1.93722,0.70123,2.43821
		c0.46773,0.50099,1.23022,0.75149,2.28796,0.75149C207.82362,44.5411,208.60286,44.41859,209.38234,44.17385L209.38234,44.17385
		L209.38234,44.17385z M216.99721,43.60587l0.06677,0.76823h2.08745v-9.68586h-2.33795v7.1809
		c-0.63449,0.31199-1.25249,0.46774-1.85374,0.46774c-0.47871,0-0.82948-0.117-1.05194-0.35074
		c-0.22301-0.23375-0.33401-0.60674-0.33401-1.11899v-6.17891h-2.33797v6.6299c0,1.01323,0.26424,1.80347,0.79324,2.37121
		c0.5285,0.56799,1.25497,0.85174,2.1792,0.85174C215.09874,44.5411,216.02849,44.2296,216.99721,43.60587L216.99721,43.60587
		L216.99721,43.60587z M223.74263,44.3741v-7.16414c0.67999-0.32275,1.33746-0.48425,1.97247-0.48425
		c0.49998,0,0.86497,0.11676,1.09248,0.35075c0.22749,0.23374,0.34247,0.60674,0.34247,1.11873v6.17891h2.33748v-6.62965
		c0-1.02423-0.26999-1.81747-0.80998-2.37971c-0.54001-0.56224-1.28746-0.84349-2.24496-0.84349
		c-0.4675,0-0.93248,0.07524-1.39496,0.22549c-0.46252,0.15025-0.95502,0.387-1.47749,0.70974l-0.0675-0.76824h-2.08698v9.68586
		H223.74263L223.74263,44.3741z M239.94237,38.0282c0-1.04623-0.36249-1.77023-1.08498-2.17097l2.08749-0.01674v-1.70323
		l-4.84242,0.43425h-0.26752c-2.81746,0-4.22495,1.09673-4.22495,3.2897c0,1.20248,0.39999,2.07647,1.2025,2.62195
		c-0.4025,0.25626-0.69249,0.53175-0.86998,0.82649c-0.17752,0.29524-0.26755,0.6375-0.26755,1.02724
		c0,0.63448,0.24005,1.11873,0.72002,1.45273c-0.97997,0.52349-1.47,1.21923-1.47,2.08747
		c0,0.93523,0.38252,1.62822,1.15251,2.07921c0.7675,0.45074,1.94247,0.67624,3.52246,0.67624
		c1.26994,0,2.28995-0.1085,3.06496-0.32549c0.77248-0.21725,1.33498-0.56249,1.68747-1.03549
		c0.34998-0.47324,0.52499-1.09373,0.52499-1.86197c0-0.63474-0.1275-1.14648-0.38504-1.53647
		c-0.25497-0.3895-0.68745-0.68999-1.29245-0.90175c-0.60748-0.21124-1.43999-0.35624-2.49747-0.43424l-2.08746-0.167
		c-0.59999-0.04425-0.90248-0.278-0.90248-0.70124c0-0.26725,0.11249-0.48975,0.33499-0.66799
		c0.49995,0.1225,1.08998,0.1835,1.76996,0.1835C238.56741,41.1844,239.94237,40.13242,239.94237,38.0282L239.94237,38.0282
		L239.94237,38.0282z M234.43997,38.98018c-0.27252-0.22249-0.40999-0.58449-0.40999-1.08548
		c0-0.50099,0.13997-0.86848,0.41747-1.10223c0.28003-0.23375,0.72499-0.35075,1.33751-0.35075
		c0.61247,0,1.05998,0.117,1.34248,0.35075c0.28499,0.23375,0.42747,0.60124,0.42747,1.10223
		c0,0.501-0.14249,0.86299-0.42747,1.08548c-0.2825,0.22275-0.73752,0.334-1.36,0.334
		C235.15497,39.31417,234.71246,39.20293,234.43997,38.98018L234.43997,38.98018z M233.61247,44.27385
		c0.29001,0.056,0.62498,0.10025,1.00249,0.13375l2.08746,0.167c0.7025,0.0555,1.175,0.15025,1.41997,0.28374
		c0.24501,0.13374,0.36751,0.37299,0.36751,0.71824c0,0.3115-0.08499,0.55375-0.25,0.72649
		c-0.1675,0.17249-0.45747,0.29475-0.86998,0.36725c-0.41249,0.07224-0.99001,0.10849-1.73499,0.10849
		c-0.91496,0-1.56744-0.10574-1.96246-0.31724c-0.39499-0.21149-0.59248-0.55674-0.59248-1.03523
		C233.07999,44.96959,233.25749,44.58559,233.61247,44.27385L233.61247,44.27385L233.61247,44.27385z"/>
	<path class="st0" d="M76.32109,24.3569c1.34698,0,2.43822-0.203,3.27322-0.60949c0.83498-0.40625,1.44447-1.05199,1.82847-1.93722
		c0.38423-0.88499,0.57623-2.03997,0.57623-3.4652c0-1.42497-0.192-2.57996-0.57623-3.46519
		c-0.384-0.88499-0.99349-1.53048-1.82847-1.93722c-0.835-0.40624-1.92623-0.6095-3.27322-0.6095h-4.52568V24.3569H76.32109
		L76.32109,24.3569z M74.20013,14.33705h2.12096c0.835,0,1.48623,0.12524,1.95397,0.37574
		c0.46749,0.25049,0.79874,0.66799,0.99349,1.25248c0.19474,0.58449,0.29224,1.37772,0.29224,2.37971
		c0,1.00199-0.0975,1.79523-0.29224,2.37971c-0.19475,0.58449-0.526,1.00199-0.99349,1.25249
		c-0.46774,0.2505-1.11897,0.37574-1.95397,0.37574h-2.12096V14.33705L74.20013,14.33705z M90.03989,24.43215
		c0.5955-0.0835,1.14948-0.19749,1.66174-0.34249v-2.07072c-0.43425,0.167-0.91024,0.298-1.42799,0.3925
		c-0.51773,0.09475-1.02148,0.142-1.51122,0.142c-0.8575,0-1.49474-0.1755-1.91222-0.52599
		c-0.41749-0.35074-0.66524-0.93799-0.74299-1.76197h6.01192v-0.71799c0-3.38444-1.38623-5.07667-4.15844-5.07667
		c-1.39173,0-2.44921,0.43149-3.17296,1.29422c-0.72374,0.86274-1.08548,2.12372-1.08548,3.78244
		c0,1.71447,0.37849,2.97821,1.13573,3.7907c0.75699,0.81299,1.93147,1.21923,3.5237,1.21923
		C88.88465,24.5574,89.44415,24.51565,90.03989,24.43215L90.03989,24.43215z M89.17991,16.95051
		c0.27824,0.3175,0.45624,0.84924,0.53449,1.59498h-3.6072c0.07775-0.75698,0.25874-1.29148,0.54274-1.60322
		c0.28374-0.3115,0.71524-0.46749,1.29423-0.46749C88.48942,16.47477,88.90141,16.63327,89.17991,16.95051L89.17991,16.95051z
		 M99.68375,23.58867l0.067,0.76824h2.08746v-9.68585h-2.33797v7.18089c-0.63474,0.31199-1.25249,0.46774-1.85373,0.46774
		c-0.47874,0-0.82948-0.117-1.05222-0.35074c-0.22276-0.23375-0.33399-0.60674-0.33399-1.11898v-6.17891h-2.33797v6.6299
		c0,1.01324,0.2645,1.80347,0.79324,2.37122c0.52873,0.56799,1.25522,0.85173,2.17946,0.85173
		C97.78552,24.5239,98.71526,24.2124,99.68375,23.58867L99.68375,23.58867L99.68375,23.58867z M110.63859,24.15665v-2.00397
		c-0.35627,0.11125-0.66798,0.192-0.935,0.242c-0.26723,0.05025-0.54023,0.07525-0.81848,0.07525
		c-0.46751,0-0.7905-0.10275-0.96849-0.309c-0.17824-0.20575-0.26726-0.57049-0.26726-1.09374v-4.34193h2.98923v-2.05421h-2.98923
		v-2.33797l-2.33794,0.21725v2.12072h-1.90372v2.05421h1.90372v4.60894c0,1.12473,0.23373,1.93722,0.70148,2.43822
		c0.46749,0.50099,1.22998,0.75148,2.28772,0.75148C109.07985,24.5239,109.85934,24.4014,110.63859,24.15665L110.63859,24.15665
		L110.63859,24.15665z M118.74621,23.82266c0.63998-0.48975,0.96024-1.25248,0.96024-2.28796
		c0-0.87924-0.21449-1.55847-0.64299-2.03747c-0.42874-0.47849-1.12723-0.80699-2.09572-0.98524l-1.25247-0.23374
		c-0.646-0.11125-0.96873-0.423-0.96873-0.93524c0-0.31149,0.12799-0.53424,0.38424-0.66799
		c0.25574-0.1335,0.67323-0.20025,1.25249-0.20025c0.50098,0,0.99898,0.0475,1.49447,0.14174
		c0.49523,0.09475,0.94897,0.2255,1.36098,0.3925v-2.07072c-0.97974-0.3115-1.95947-0.46749-2.93896-0.46749
		c-1.33598,0-2.32972,0.24499-2.98094,0.73474c-0.65125,0.48998-0.97699,1.24697-0.97699,2.2712
		c0,0.835,0.21699,1.48348,0.65122,1.94548c0.43424,0.46199,1.13575,0.78774,2.10421,0.97698l1.2525,0.23375
		c0.64548,0.1115,0.96848,0.42325,0.96848,0.93524c0,0.34525-0.12799,0.59574-0.38398,0.75149
		c-0.25626,0.156-0.67924,0.23375-1.26924,0.23375c-0.53423,0-1.08823-0.04725-1.66147-0.142
		c-0.57374-0.0945-1.07173-0.21425-1.49473-0.359v2.05397c0.52324,0.145,1.06873,0.25599,1.63647,0.33399
		c0.56799,0.07774,1.11324,0.117,1.63671,0.117C117.11797,24.5574,118.10571,24.31265,118.74621,23.82266L118.74621,23.82266z
		 M126.51958,24.51565c0.24476-0.028,0.51501-0.07525,0.80998-0.142c0.29503-0.06675,0.65401-0.16125,1.07726-0.284v-2.13747
		c-0.61251,0.1895-1.08298,0.32025-1.41123,0.39249c-0.32848,0.0725-0.64874,0.1085-0.96024,0.1085
		c-0.84624,0-1.46697-0.2365-1.86198-0.70974c-0.39526-0.473-0.59273-1.21623-0.59273-2.22946
		c0-1.02399,0.18075-1.77022,0.54275-2.23772c0.36149-0.46749,0.93773-0.70149,1.7282-0.70149
		c0.85725,0,1.7035,0.1505,2.53848,0.45099v-2.13746c-0.47874-0.15574-0.92424-0.26449-1.33598-0.32575
		c-0.41199-0.06099-0.863-0.09174-1.35274-0.09174c-3.00595,0-4.50892,1.68123-4.50892,5.04317
		c0,1.72597,0.36749,2.9977,1.10222,3.81594c0.73475,0.81824,1.87572,1.22749,3.42345,1.22749
		C126.00735,24.5574,126.27458,24.54314,126.51958,24.51565L126.51958,24.51565z M132.6485,24.3569v-7.16415
		c0.67899-0.32274,1.33598-0.48424,1.97046-0.48424c0.50101,0,0.86549,0.11675,1.09399,0.35074
		c0.228,0.23375,0.34222,0.60674,0.34222,1.11874v6.1789h2.33798v-6.62965c0-1.02424-0.27-1.81747-0.80998-2.37972
		c-0.53998-0.56224-1.28873-0.84348-2.24597-0.84348c-0.85748,0-1.75346,0.27849-2.68871,0.83499v-4.19169l-2.33798,0.2005V24.3569
		H132.6485L132.6485,24.3569z M146.56754,24.43215c0.5955-0.0835,1.14948-0.19749,1.66173-0.34249v-2.07072
		c-0.43425,0.167-0.91023,0.298-1.42772,0.3925c-0.51775,0.09475-1.02176,0.142-1.51149,0.142
		c-0.85748,0-1.49446-0.1755-1.91197-0.52599c-0.41748-0.35074-0.66548-0.93799-0.74323-1.76197h6.01189v-0.71799
		c0-3.38444-1.38597-5.07667-4.15819-5.07667c-1.39197,0-2.44943,0.43149-3.17294,1.29422
		c-0.72398,0.86274-1.08548,2.12372-1.08548,3.78244c0,1.71447,0.37825,2.97821,1.13548,3.7907
		c0.75699,0.81299,1.93147,1.21923,3.52371,1.21923C145.41255,24.5574,145.97205,24.51565,146.56754,24.43215L146.56754,24.43215z
		 M145.70755,16.95051c0.27826,0.3175,0.4565,0.84924,0.53448,1.59498h-3.60718c0.07774-0.75698,0.25874-1.29148,0.54272-1.60322
		c0.28401-0.3115,0.71526-0.46749,1.29424-0.46749C145.01732,16.47477,145.42929,16.63327,145.70755,16.95051L145.70755,16.95051z"
		/>
</g>
</svg>