<svg width="32" height="32" viewBox="0 0 32 32" fill="none" xmlns="http://www.w3.org/2000/svg">
<path fill-rule="evenodd" clip-rule="evenodd" d="M15.974 32H16C24.8195 32 31.974 24.8339 31.974 16C31.974 7.16613 24.8195 0 16 0C7.18047 0 0.026001 7.16613 0.026001 16C0.026001 24.8339 7.15446 32 15.974 32Z" fill="#C4273E"/>
<path fill-rule="evenodd" clip-rule="evenodd" d="M12.3057 31.5831V0.416992C10.1203 0.938165 8.11705 1.90235 6.37396 3.20528V28.7688C8.11705 30.0978 10.1203 31.062 12.3057 31.5831Z" fill="#FEFEFE"/>
<path fill-rule="evenodd" clip-rule="evenodd" d="M0.286178 18.9707H31.7138C31.8959 18.0065 32 17.0163 32 16C32 14.9837 31.8959 13.9935 31.7138 13.0293H0.286178C0.104065 13.9935 0 14.9837 0 16C0.0260163 17.0163 0.104065 18.0065 0.286178 18.9707Z" fill="#FEFEFE"/>
</svg>
