<svg width="24" height="24" viewBox="0 0 24 24" fill="none"
  xmlns="http://www.w3.org/2000/svg">
  <path fill-rule="evenodd" clip-rule="evenodd" d="M5.01867 14.8131C4.46102 14.8131 3.9159 14.6477 3.45229 14.3378C2.98867 14.0279 2.6274 13.5875 2.41418 13.0722C2.20096 12.5569 2.14538 11.99 2.25446 11.4431C2.36354 10.8962 2.63239 10.394 3.02699 9.99994C3.42159 9.6059 3.9242 9.33776 4.47123 9.22946C5.01826 9.12115 5.58513 9.17754 6.1001 9.39149C6.61508 9.60544 7.05501 9.96734 7.36425 10.4314C7.67349 10.8954 7.83813 11.4408 7.83734 11.9984C7.83557 12.7451 7.53791 13.4606 7.00958 13.9882C6.48124 14.5158 5.76532 14.8124 5.01867 14.8131ZM5.01867 10.7758C4.77781 10.7758 4.54235 10.8472 4.34203 10.9809C4.14171 11.1146 3.98551 11.3047 3.89316 11.5272C3.8008 11.7496 3.77644 11.9944 3.82314 12.2307C3.86983 12.467 3.9855 12.6842 4.15554 12.8548C4.32557 13.0254 4.54234 13.1417 4.77848 13.1892C5.01461 13.2367 5.25952 13.2131 5.48227 13.1215C5.70502 13.0299 5.89562 12.8743 6.03001 12.6744C6.1644 12.4745 6.23655 12.2393 6.23734 11.9984C6.23769 11.8381 6.20643 11.6793 6.14536 11.5311C6.08429 11.3828 5.9946 11.2481 5.88142 11.1345C5.76824 11.021 5.63379 10.9308 5.48575 10.8693C5.33771 10.8077 5.17899 10.776 5.01867 10.7758ZM11.9893 14.8131C11.4317 14.8131 10.8866 14.6477 10.423 14.3378C9.95934 14.0279 9.59807 13.5875 9.38485 13.0722C9.17163 12.5569 9.11604 11.99 9.22512 11.4431C9.33421 10.8962 9.60306 10.394 9.99765 9.99994C10.3923 9.6059 10.8949 9.33776 11.4419 9.22946C11.9889 9.12115 12.5558 9.17754 13.0708 9.39149C13.5857 9.60544 14.0257 9.96734 14.3349 10.4314C14.6442 10.8954 14.8088 11.4408 14.808 11.9984C14.8059 12.745 14.5081 13.4603 13.9799 13.9878C13.4516 14.5153 12.7359 14.8121 11.9893 14.8131ZM11.9893 10.7758C11.7485 10.7758 11.513 10.8472 11.3127 10.9809C11.1124 11.1146 10.9562 11.3047 10.8638 11.5272C10.7715 11.7496 10.7471 11.9944 10.7938 12.2307C10.8405 12.467 10.9562 12.6842 11.1262 12.8548C11.2962 13.0254 11.513 13.1417 11.7491 13.1892C11.9853 13.2367 12.2302 13.2131 12.4529 13.1215C12.6757 13.0299 12.8663 12.8743 13.0007 12.6744C13.1351 12.4745 13.2072 12.2393 13.208 11.9984C13.2084 11.8381 13.1771 11.6793 13.116 11.5311C13.055 11.3828 12.9653 11.2481 12.8521 11.1345C12.7389 11.021 12.6045 10.9308 12.4564 10.8693C12.3084 10.8077 12.1497 10.776 11.9893 10.7758ZM17.415 14.3378C17.8786 14.6477 18.4237 14.8131 18.9813 14.8131C19.728 14.8124 20.4439 14.5158 20.9722 13.9882C21.5006 13.4606 21.7982 12.7451 21.8 11.9984C21.8008 11.4408 21.6361 10.8954 21.3269 10.4314C21.0177 9.96734 20.5777 9.60544 20.0628 9.39149C19.5478 9.17754 18.9809 9.12115 18.4339 9.22946C17.8869 9.33776 17.3843 9.6059 16.9897 9.99994C16.5951 10.394 16.3262 10.8962 16.2171 11.4431C16.108 11.99 16.1636 12.5569 16.3768 13.0722C16.5901 13.5875 16.9513 14.0279 17.415 14.3378ZM18.3047 10.9809C18.505 10.8472 18.7405 10.7758 18.9813 10.7758C19.1417 10.776 19.3004 10.8077 19.4484 10.8693C19.5964 10.9308 19.7309 11.021 19.8441 11.1345C19.9573 11.2481 20.0469 11.3828 20.108 11.5311C20.1691 11.6793 20.2003 11.8381 20.2 11.9984C20.1992 12.2393 20.1271 12.4745 19.9927 12.6744C19.8583 12.8743 19.6677 13.0299 19.4449 13.1215C19.2222 13.2131 18.9773 13.2367 18.7411 13.1892C18.505 13.1417 18.2882 13.0254 18.1182 12.8548C17.9482 12.6842 17.8325 12.467 17.7858 12.2307C17.7391 11.9944 17.7635 11.7496 17.8558 11.5272C17.9482 11.3047 18.1044 11.1146 18.3047 10.9809Z"/>
</svg>
