<svg width="32" height="32" viewBox="0 0 32 32" fill="none" xmlns="http://www.w3.org/2000/svg">
<path fill-rule="evenodd" clip-rule="evenodd" d="M10.6667 31.0886V0.911255C4.44878 3.0984 0 9.03494 0 15.9869C0.0260163 22.991 4.4748 28.9015 10.6667 31.0886Z" fill="#303D8F"/>
<path fill-rule="evenodd" clip-rule="evenodd" d="M15.974 32H16C17.8731 32 19.6423 31.6876 21.3073 31.0887V0.91131C19.6423 0.312449 17.8471 0 15.974 0C14.1008 0 12.3057 0.312449 10.6406 0.91131V31.0887C12.3317 31.6876 14.1268 32 15.974 32Z" fill="#F9FAFA"/>
<path fill-rule="evenodd" clip-rule="evenodd" d="M21.3333 0.937256V31.1146C27.5512 28.9275 32 22.991 32 16.039C31.974 9.06093 27.5252 3.1244 21.3333 0.937256Z" fill="#D82535"/>
</svg>
