<svg id="Logo" xmlns="http://www.w3.org/2000/svg" viewBox="0 0 240.94 56.69"><path d="M56.69,28.35a28.21,28.21,0,0,0-5.06-16.17L46.25,23.65a18.8,18.8,0,0,1,.6,4.7A18.53,18.53,0,0,1,36.17,45.12l-.1.05a18.57,18.57,0,0,1-15.48,0l-.07,0A18.55,18.55,0,0,1,10.45,23.65L5.06,12.18A28.35,28.35,0,1,0,56.69,28.35ZM44.58,19.47,49.35,9.31a28.41,28.41,0,0,0-8-6.15l-4.19,8.92h0l-1.4,3L28.35,30.89,20.92,15.06l-1.4-3h0L15.33,3.16a28.41,28.41,0,0,0-8,6.15l4.77,10.16L14,23.39l5.48,11.68L23,42.59a15.46,15.46,0,0,0,10.78,0l3.52-7.52,5.48-11.68,1.84-3.92Z"/><path class="cls-1" d="M77.69,44.37l4.43-12H79.71l-3.14,9-3.14-9H70.86l4.43,12Zm10.65.08A12.79,12.79,0,0,0,90,44.11V42a9.28,9.28,0,0,1-1.43.39,8.84,8.84,0,0,1-1.51.14A2.85,2.85,0,0,1,85.15,42a2.5,2.5,0,0,1-.75-1.76h6v-.72q0-5.07-4.16-5.07a3.94,3.94,0,0,0-3.18,1.29A5.77,5.77,0,0,0,82,39.56a5.48,5.48,0,0,0,1.13,3.8,4.63,4.63,0,0,0,3.53,1.21,12.76,12.76,0,0,0,1.68-.12ZM87.48,37A3,3,0,0,1,88,38.56H84.4A2.79,2.79,0,0,1,85,37a1.66,1.66,0,0,1,1.29-.47,1.55,1.55,0,0,1,1.24.48Zm7.24,7.4V37.56a5,5,0,0,1,1.25-.5,6.1,6.1,0,0,1,1.41-.15,8.24,8.24,0,0,1,.85.05V34.69a2.88,2.88,0,0,0-.62,0,4,4,0,0,0-1.48.26,6.26,6.26,0,0,0-1.56.91l-.1-1.12H92.39v9.68Zm7.27,0V37.18a3.94,3.94,0,0,1,1.77-.45,1.17,1.17,0,0,1,1,.35,1.68,1.68,0,0,1,.28,1.08v6.21h2.34V37.74a5.07,5.07,0,0,0,0-.55,3.94,3.94,0,0,1,1.8-.46,1.16,1.16,0,0,1,1,.35,1.68,1.68,0,0,1,.28,1.08v6.21h2.34V37.74a3.65,3.65,0,0,0-.42-1.87,2.48,2.48,0,0,0-1.08-1,3.13,3.13,0,0,0-1.37-.32,4.28,4.28,0,0,0-1.54.28,7,7,0,0,0-1.54.82,2.22,2.22,0,0,0-1-.84,3.19,3.19,0,0,0-1.26-.26,4.15,4.15,0,0,0-1.34.23,7,7,0,0,0-1.35.67l-.06-.73H99.65v9.68Zm21.41-4.84q0-5-4.4-5c-2.92,0-4.39,1.68-4.39,5s1.47,5,4.39,5,4.4-1.68,4.4-5Zm-5.94,2.27a4.12,4.12,0,0,1-.46-2.27,4.14,4.14,0,0,1,.46-2.27,2.12,2.12,0,0,1,3.09,0,4.14,4.14,0,0,1,.46,2.27,4.12,4.12,0,0,1-.46,2.27,2.12,2.12,0,0,1-3.09,0Zm1-8.31V31.32H116v2.17Zm3.54,0V31.32h-2.51v2.17ZM133.5,38a2.25,2.25,0,0,0-1.09-2.17l2.09,0v-1.7l-4.84.43h-.27q-4.21,0-4.22,3.29a2.94,2.94,0,0,0,1.2,2.62,2.68,2.68,0,0,0-.87.83,1.93,1.93,0,0,0-.27,1,1.66,1.66,0,0,0,.72,1.45,2.35,2.35,0,0,0-1.47,2.09A2.27,2.27,0,0,0,125.63,48a7.21,7.21,0,0,0,3.53.67,12,12,0,0,0,3.06-.32,2.68,2.68,0,0,0,2.21-2.9,2.73,2.73,0,0,0-.38-1.54,2.46,2.46,0,0,0-1.29-.9,10.37,10.37,0,0,0-2.5-.43l-2.09-.17c-.6,0-.9-.28-.9-.7a.83.83,0,0,1,.33-.67,7.81,7.81,0,0,0,1.78.18c2.74,0,4.12-1,4.12-3.15ZM128,39a1.3,1.3,0,0,1-.41-1.09,1.36,1.36,0,0,1,.42-1.1,2.06,2.06,0,0,1,1.33-.35,2.16,2.16,0,0,1,1.35.35,1.36,1.36,0,0,1,.42,1.1,1.3,1.3,0,0,1-.42,1.09,2.25,2.25,0,0,1-1.36.33A2.11,2.11,0,0,1,128,39Zm-.83,5.29c.29.06.62.1,1,.14l2.09.16a4,4,0,0,1,1.42.29.75.75,0,0,1,.37.72,1,1,0,0,1-.25.72,1.53,1.53,0,0,1-.87.37,10.88,10.88,0,0,1-1.74.11,4.43,4.43,0,0,1-2-.32,1.08,1.08,0,0,1-.59-1,1.48,1.48,0,0,1,.53-1.16Zm14.77.18a12.46,12.46,0,0,0,1.66-.34V42a9.15,9.15,0,0,1-1.42.39,9,9,0,0,1-1.52.14,2.88,2.88,0,0,1-1.91-.53,2.49,2.49,0,0,1-.74-1.76h6v-.72q0-5.07-4.16-5.07a3.9,3.9,0,0,0-3.17,1.29,5.77,5.77,0,0,0-1.09,3.78,5.43,5.43,0,0,0,1.14,3.8,4.61,4.61,0,0,0,3.52,1.21,12.52,12.52,0,0,0,1.68-.12ZM141.08,37a2.9,2.9,0,0,1,.54,1.59H138a2.87,2.87,0,0,1,.54-1.6,1.69,1.69,0,0,1,1.3-.47,1.55,1.55,0,0,1,1.23.48Zm7.28,7.4V37.21a4.63,4.63,0,0,1,2-.48,1.47,1.47,0,0,1,1.1.35,1.58,1.58,0,0,1,.34,1.12v6.17h2.34V37.74a3.32,3.32,0,0,0-.81-2.38,3,3,0,0,0-2.25-.84,4.45,4.45,0,0,0-1.39.23,6.39,6.39,0,0,0-1.48.71l-.07-.77H146v9.68Zm14.16-.53a2.7,2.7,0,0,0,1-2.29,3,3,0,0,0-.65-2,3.66,3.66,0,0,0-2.09-1l-1.26-.23c-.64-.12-1-.43-1-.94a.7.7,0,0,1,.38-.67,2.93,2.93,0,0,1,1.25-.2,8.46,8.46,0,0,1,1.5.14A7.48,7.48,0,0,1,163,37V35a9.41,9.41,0,0,0-2.94-.47,4.94,4.94,0,0,0-3,.73,2.67,2.67,0,0,0-1,2.27,2.75,2.75,0,0,0,.65,1.95,3.89,3.89,0,0,0,2.11,1l1.25.23c.64.11,1,.42,1,.94a.82.82,0,0,1-.39.75,2.62,2.62,0,0,1-1.27.23,10.83,10.83,0,0,1-1.66-.14,10.54,10.54,0,0,1-1.49-.36v2a12.06,12.06,0,0,0,1.63.34,11.78,11.78,0,0,0,1.64.11,4.88,4.88,0,0,0,3-.73Zm4.93.53.07-.76a6.54,6.54,0,0,0,1.42.72,4,4,0,0,0,1.3.21A3.22,3.22,0,0,0,173,43.26a6.17,6.17,0,0,0,1-3.73,6.14,6.14,0,0,0-1-3.72,3.2,3.2,0,0,0-2.75-1.29,4.18,4.18,0,0,0-1.24.18,6.19,6.19,0,0,0-1.3.64V31.16l-2.34.21v13Zm3.67-7a4.13,4.13,0,0,1,.44,2.19,4.11,4.11,0,0,1-.44,2.19,1.72,1.72,0,0,1-1.52.65,3.48,3.48,0,0,1-.9-.12,4.52,4.52,0,0,1-1-.4V37.21a5.07,5.07,0,0,1,1-.4,3.48,3.48,0,0,1,.9-.12,1.72,1.72,0,0,1,1.52.65Zm10.75,7.11a12.46,12.46,0,0,0,1.66-.34V42a9,9,0,0,1-1.43.39,8.75,8.75,0,0,1-1.51.14,2.88,2.88,0,0,1-1.91-.53,2.49,2.49,0,0,1-.74-1.76h6v-.72q0-5.07-4.16-5.07a3.9,3.9,0,0,0-3.17,1.29,5.72,5.72,0,0,0-1.09,3.78,5.43,5.43,0,0,0,1.14,3.8,4.61,4.61,0,0,0,3.52,1.21,12.76,12.76,0,0,0,1.68-.12ZM181,37a2.82,2.82,0,0,1,.53,1.59h-3.6a2.87,2.87,0,0,1,.54-1.6,1.67,1.67,0,0,1,1.29-.47A1.55,1.55,0,0,1,181,37Zm7.45,7.4V37.56a4.81,4.81,0,0,1,1.24-.5,6.1,6.1,0,0,1,1.41-.15A8.08,8.08,0,0,1,192,37V34.69a2.78,2.78,0,0,0-.61,0,4,4,0,0,0-1.49.26,6.23,6.23,0,0,0-1.55.91l-.1-1.12h-2.09v9.68Zm8.55,0a6.7,6.7,0,0,0,1.53-.75l.07.8h2.09V38a3.46,3.46,0,0,0-.95-2.72,4.62,4.62,0,0,0-3.08-.82,11.83,11.83,0,0,0-1.59.12,15.18,15.18,0,0,0-1.61.33V37a7.56,7.56,0,0,1,1.42-.35,10,10,0,0,1,1.53-.11,2.46,2.46,0,0,1,1.49.35,1.37,1.37,0,0,1,.47,1.15v.83c-.4-.07-.76-.13-1.08-.16s-.62,0-.91,0a4.44,4.44,0,0,0-2.81.73,2.75,2.75,0,0,0-.9,2.28,2.86,2.86,0,0,0,.74,2.14,2.92,2.92,0,0,0,2.15.73,4.7,4.7,0,0,0,1.44-.22Zm-1.61-3.65a1.77,1.77,0,0,1,1.11-.27,7.32,7.32,0,0,1,.86.06c.33,0,.66.09,1,.16V42a8.41,8.41,0,0,1-1.24.45,3.73,3.73,0,0,1-.95.13,1.13,1.13,0,0,1-.79-1.95Zm14,3.5v-2a8.59,8.59,0,0,1-.93.24,4.47,4.47,0,0,1-.82.08,1.26,1.26,0,0,1-1-.31,1.7,1.7,0,0,1-.27-1.1V36.74h3V34.69h-3V32.35l-2.33.22v2.12h-1.91v2.05h1.91v4.61a3.49,3.49,0,0,0,.7,2.44,3,3,0,0,0,2.28.75,7.62,7.62,0,0,0,2.34-.37Zm7.62-.56.06.76h2.09V34.69h-2.34v7.18a4.19,4.19,0,0,1-1.85.47,1.4,1.4,0,0,1-1.05-.35,1.56,1.56,0,0,1-.34-1.12V34.69h-2.33v6.63a3.34,3.34,0,0,0,.79,2.37,2.82,2.82,0,0,0,2.18.85,5.2,5.2,0,0,0,2.79-.93Zm6.74.76V37.21a4.64,4.64,0,0,1,2-.48,1.44,1.44,0,0,1,1.09.35,1.53,1.53,0,0,1,.34,1.12v6.17h2.34V37.74a3.32,3.32,0,0,0-.81-2.38,3,3,0,0,0-2.25-.84,4.5,4.5,0,0,0-1.39.23,6.59,6.59,0,0,0-1.48.71l-.07-.77h-2.08v9.68ZM239.94,38a2.26,2.26,0,0,0-1.08-2.17l2.08,0v-1.7l-4.84.43h-.27q-4.22,0-4.22,3.29a2.94,2.94,0,0,0,1.2,2.62,2.68,2.68,0,0,0-.87.83,1.93,1.93,0,0,0-.27,1,1.68,1.68,0,0,0,.72,1.45,2.36,2.36,0,0,0-1.47,2.09A2.26,2.26,0,0,0,232.08,48a7.14,7.14,0,0,0,3.52.67,12,12,0,0,0,3.06-.32,2.7,2.7,0,0,0,2.22-2.9,2.72,2.72,0,0,0-.39-1.54,2.42,2.42,0,0,0-1.29-.9,10.37,10.37,0,0,0-2.5-.43l-2.09-.17c-.6,0-.9-.28-.9-.7a.81.81,0,0,1,.34-.67,7.66,7.66,0,0,0,1.77.18q4.13,0,4.12-3.15Zm-5.5.95a1.33,1.33,0,0,1-.41-1.09,1.36,1.36,0,0,1,.42-1.1,2.08,2.08,0,0,1,1.33-.35,2.14,2.14,0,0,1,1.35.35,1.36,1.36,0,0,1,.42,1.1,1.3,1.3,0,0,1-.42,1.09,2.25,2.25,0,0,1-1.36.33,2.11,2.11,0,0,1-1.33-.33Zm-.83,5.29c.29.06.63.1,1,.14l2.09.16a3.94,3.94,0,0,1,1.42.29.73.73,0,0,1,.37.72,1,1,0,0,1-.25.72,1.53,1.53,0,0,1-.87.37,10.88,10.88,0,0,1-1.74.11,4.46,4.46,0,0,1-2-.32,1.09,1.09,0,0,1-.59-1,1.51,1.51,0,0,1,.53-1.16Z"/><path class="cls-1" d="M76.32,24.36a7.57,7.57,0,0,0,3.27-.61,3.69,3.69,0,0,0,1.83-1.94A8.68,8.68,0,0,0,82,18.34a8.69,8.69,0,0,0-.58-3.46,3.69,3.69,0,0,0-1.83-1.94,7.57,7.57,0,0,0-3.27-.61H71.8v12Zm-2.12-10h2.12a4.22,4.22,0,0,1,2,.37,2.14,2.14,0,0,1,1,1.26,7.86,7.86,0,0,1,.29,2.37,7.88,7.88,0,0,1-.29,2.38,2.14,2.14,0,0,1-1,1.26,4.22,4.22,0,0,1-2,.37H74.2v-8ZM90,24.43a12.46,12.46,0,0,0,1.66-.34V22a7.27,7.27,0,0,1-1.43.39,7.86,7.86,0,0,1-1.51.14A2.92,2.92,0,0,1,86.85,22a2.47,2.47,0,0,1-.74-1.76h6v-.72q0-5.09-4.16-5.08a3.88,3.88,0,0,0-3.17,1.3,5.7,5.7,0,0,0-1.09,3.78,5.4,5.4,0,0,0,1.14,3.79,4.6,4.6,0,0,0,3.52,1.22A11.33,11.33,0,0,0,90,24.43ZM89.18,17a2.83,2.83,0,0,1,.53,1.6h-3.6a2.81,2.81,0,0,1,.54-1.61,1.67,1.67,0,0,1,1.29-.47,1.55,1.55,0,0,1,1.24.48Zm10.5,6.64.07.77h2.09V14.67H99.5v7.18a4.19,4.19,0,0,1-1.85.47A1.44,1.44,0,0,1,96.59,22a1.59,1.59,0,0,1-.33-1.12V14.67H93.92V21.3a3.35,3.35,0,0,0,.8,2.37,2.8,2.8,0,0,0,2.18.85,5.15,5.15,0,0,0,2.78-.93Zm11,.57v-2a8.7,8.7,0,0,1-.94.24,4.36,4.36,0,0,1-.81.08,1.21,1.21,0,0,1-1-.31,1.67,1.67,0,0,1-.27-1.09V16.73h3V14.67h-3V12.33l-2.34.22v2.12h-1.9v2.06h1.9v4.6a3.54,3.54,0,0,0,.7,2.44,3,3,0,0,0,2.29.75,7.92,7.92,0,0,0,2.34-.36Zm8.11-.34a2.7,2.7,0,0,0,1-2.29,3,3,0,0,0-.65-2,3.6,3.6,0,0,0-2.09-1l-1.25-.23c-.65-.11-1-.42-1-.94a.67.67,0,0,1,.38-.66,2.76,2.76,0,0,1,1.25-.21,7.63,7.63,0,0,1,1.5.15,6.76,6.76,0,0,1,1.36.39V14.94a9.71,9.71,0,0,0-2.94-.47,4.93,4.93,0,0,0-3,.74,2.65,2.65,0,0,0-1,2.27,2.74,2.74,0,0,0,.65,1.94,3.89,3.89,0,0,0,2.11,1l1.25.23c.65.11,1,.43,1,.94a.82.82,0,0,1-.39.75,2.47,2.47,0,0,1-1.26.23,9.73,9.73,0,0,1-1.67-.14,8.36,8.36,0,0,1-1.49-.36v2.06a13.59,13.59,0,0,0,1.64.33,11.6,11.6,0,0,0,1.63.12,4.88,4.88,0,0,0,3-.74Zm7.77.7a7.94,7.94,0,0,0,.81-.15c.29-.06.65-.16,1.08-.28V22q-.93.29-1.41.39a4,4,0,0,1-1,.11,2.29,2.29,0,0,1-1.87-.71,3.46,3.46,0,0,1-.59-2.23,3.66,3.66,0,0,1,.54-2.23,2,2,0,0,1,1.73-.71,7.45,7.45,0,0,1,2.54.46V14.89a7.67,7.67,0,0,0-1.34-.33,9.36,9.36,0,0,0-1.35-.09c-3,0-4.51,1.68-4.51,5a5.62,5.62,0,0,0,1.1,3.82,4.39,4.39,0,0,0,3.43,1.23c.29,0,.55,0,.8,0Zm6.13-.16V17.19a4.59,4.59,0,0,1,2-.48,1.49,1.49,0,0,1,1.09.35,1.55,1.55,0,0,1,.35,1.12v6.18h2.33V17.73a3.28,3.28,0,0,0-.81-2.38,3,3,0,0,0-2.24-.85,5.23,5.23,0,0,0-2.69.84V11.15l-2.34.2v13Zm13.92.07a12.79,12.79,0,0,0,1.66-.34V22a7.27,7.27,0,0,1-1.43.39,7.93,7.93,0,0,1-1.51.14,2.92,2.92,0,0,1-1.91-.52,2.52,2.52,0,0,1-.75-1.76h6v-.72q0-5.09-4.16-5.08a3.88,3.88,0,0,0-3.17,1.3,5.7,5.7,0,0,0-1.09,3.78,5.4,5.4,0,0,0,1.14,3.79,4.6,4.6,0,0,0,3.52,1.22,11.33,11.33,0,0,0,1.68-.13ZM145.71,17a2.91,2.91,0,0,1,.53,1.6h-3.61a2.8,2.8,0,0,1,.55-1.61,1.66,1.66,0,0,1,1.29-.47,1.55,1.55,0,0,1,1.24.48Z"/></svg>