<svg width="24" height="24" viewBox="0 0 24 24" xmlns="http://www.w3.org/2000/svg"><path d="M14.5 2a2 2 0 012 2v1.5h7a.5.5 0 01.492.41L24 6v15.5a.5.5 0 01-.5.5H.5a.5.5 0 01-.5-.5V6a.5.5 0 01.5-.5h7V4a2 2 0 011.85-1.995L9.5 2zm8.501 11.448A3.49 3.49 0 0120.5 14.5h-7V16a1.5 1.5 0 01-1.356 1.493L12 17.5a1.5 1.5 0 01-1.5-1.5v-1.5h-7A3.49 3.49 0 011 13.45V21h22zM12 11.5a.5.5 0 00-.5.5v4a.5.5 0 101 0v-4a.5.5 0 00-.5-.5zm11-5H1V11a2.5 2.5 0 002.336 2.495l.164.005h7V12a1.5 1.5 0 011.356-1.493L12 10.5a1.5 1.5 0 011.5 1.5v1.5h7a2.5 2.5 0 002.495-2.336L23 11V6.5zM14.5 3h-5a1 1 0 00-1 1v1.5h7V4a1 1 0 00-.883-.993L14.5 3z" fill="#7F7F7F" fill-rule="nonzero"/></svg>