<svg width="75" height="75" viewBox="0 0 75 75"
  xmlns="http://www.w3.org/2000/svg">
  <path fill-rule="evenodd" clip-rule="evenodd" d="M58.2208 18.2331V45.8331H9.24162V18.2331H58.2208ZM59.8874 16.5664H7.57495V47.4998H59.8874V16.5664ZM67.575 55.1626H17.2583V53.496H65.9083V29.9835H67.575V55.1626ZM28.0458 32.2119V33.4619L29.2916 33.4661C29.5083 35.2077 30.0513 36.4952 30.9208 37.3286C31.7902 38.1619 33.0111 38.5786 34.5833 38.5786C35.6638 38.562 36.7281 38.3134 37.7041 37.8494V36.3161C37.2053 36.555 36.6867 36.7502 36.1541 36.8994C35.6903 37.0213 35.2128 37.0829 34.7333 37.0827C33.802 37.1487 32.8815 36.8498 32.1666 36.2494C31.5555 35.6716 31.1722 34.7258 31.0166 33.4119H36.575V32.1619H30.9208V31.5077V30.8577H36.575V29.6077H31.0208C31.1875 28.3327 31.5583 27.4077 32.1333 26.8411C32.4655 26.5458 32.8534 26.32 33.2741 26.1769C33.6949 26.0338 34.14 25.9763 34.5833 26.0077C35.6647 26.0284 36.7323 26.2546 37.7291 26.6744V25.1411C36.7133 24.755 35.6367 24.5532 34.55 24.5452C33 24.5452 31.7791 24.9619 30.9166 25.7952C30.0527 26.6313 29.5125 27.9188 29.2958 29.6577H28.0458V30.9077H29.2125V31.5577V32.2119H28.0458Z"/>
</svg>
