<svg width="188" height="202" viewBox="0 0 188 202" fill="none" xmlns="http://www.w3.org/2000/svg">
<path opacity="0.3" fill-rule="evenodd" clip-rule="evenodd" d="M133.458 107.532L169.861 144V107.506H188V0H72V107.532H133.458V107.532ZM135.467 102.501H76.9709L77.0216 5.03008H182.929V102.476H164.79V131.878L135.467 102.501V102.501Z" fill="white"/>
<path opacity="0.3" fill-rule="evenodd" clip-rule="evenodd" d="M18.1401 134.516V171L54.5588 134.516H111V129.485H52.4873L23.1612 158.864V129.485H5.02106V32.0305H50.6039V27H0V134.516H18.1401V134.516Z" fill="white"/>
<path opacity="0.3" d="M124.919 63.6921V61.4401C124.919 59.0587 125.257 57.1689 125.934 55.7711C126.662 54.3733 127.99 52.8202 129.916 51.1117L134.289 47.3842C136.111 45.8311 137.36 44.3815 138.037 43.0354C138.766 41.6376 139.13 39.981 139.13 38.0654C139.13 32.0082 135.746 28.9796 128.979 28.9796C124.763 28.9796 120.103 30.0927 115.002 32.3188V25.8733C119.635 23.9578 124.398 23 129.292 23C134.601 23 138.713 24.2943 141.629 26.8828C144.544 29.4715 146.002 33.1472 146.002 37.9101C146.002 39.8256 145.768 41.5341 145.299 43.0354C144.882 44.485 144.128 45.9087 143.035 47.3065C141.942 48.6527 140.431 50.154 138.506 51.8106L134.133 55.5381C132.831 56.6771 131.998 57.5832 131.634 58.2561C131.322 58.9292 131.166 59.9905 131.166 61.4401V63.6921H124.919ZM123.904 80V70.9142H132.025V80H123.904Z" fill="white"/>
</svg>
