<svg width="32" height="32" viewBox="0 0 32 32" fill="none" xmlns="http://www.w3.org/2000/svg">
<path fill-rule="evenodd" clip-rule="evenodd" d="M10.6667 31.0627V0.911316C4.44878 3.09846 0 9.03499 0 15.987C0.0260163 22.939 4.4748 28.8755 10.6667 31.0627Z" fill="#389B61"/>
<path fill-rule="evenodd" clip-rule="evenodd" d="M21.3333 31.0627V0.91131C19.6683 0.312449 17.8732 0 16.026 0H16C14.1268 0 12.3577 0.312449 10.6927 0.91131V31.0887C12.3577 31.6876 14.1529 32 16.026 32C17.8732 31.974 19.6683 31.6615 21.3333 31.0627Z" fill="#FEFEFE"/>
<path fill-rule="evenodd" clip-rule="evenodd" d="M21.3333 0.911316V31.0887C27.5512 28.9016 32 22.965 32 16.013C31.974 9.00896 27.5252 3.09846 21.3333 0.911316Z" fill="#D82535"/>
</svg>
