<svg width="24" height="24" viewBox="0 0 24 24" fill="none"
  xmlns="http://www.w3.org/2000/svg">
  <path d="M12 2.20312C6.596 2.20312 2.2 6.59913 2.2 12.0031C2.2 17.4071 6.596 21.8031 12 21.8031C17.404 21.8031 21.8 17.4071 21.8 12.0031C21.8 6.59913 17.404 2.20312 12 2.20312ZM12 20.2031C7.47866 20.2031 3.8 16.5245 3.8 12.0031C3.8 7.48179 7.47866 3.80313 12 3.80313C16.5213 3.80313 20.2 7.48179 20.2 12.0031C20.2 16.5245 16.5213 20.2031 12 20.2031ZM16.336 8.51779L17.4667 9.64846L11.0413 16.0738L7.568 12.5631L8.70533 11.4378L11.048 13.8058L16.336 8.51779Z"/>
</svg>
