<?xml version="1.0" encoding="UTF-8"?>
<svg width="18px" height="18px" viewBox="0 0 18 18" version="1.1" xmlns="http://www.w3.org/2000/svg" xmlns:xlink="http://www.w3.org/1999/xlink">
    <!-- Generator: Sketch 63.1 (92452) - https://sketch.com -->
    <title>Icon/20x20/warning</title>
    <desc>Created with Sketch.</desc>
    <g id="Symbols" stroke="none" stroke-width="1" fill="none" fill-rule="evenodd">
        <g id="Icon/24x24/error" transform="translate(-3.000000, -3.000000)" fill="#D71B3A">
            <g id="Icon/20x20/warning" transform="translate(2.000000, 2.000000)">
                <path d="M10,1 C14.9705627,1 19,5.02943725 19,10 C19,14.9705627 14.9705627,19 10,19 C5.02943725,19 1,14.9705627 1,10 C1,5.02943725 5.02943725,1 10,1 Z M10,2.8 C6.0235498,2.8 2.8,6.0235498 2.8,10 C2.8,13.9764502 6.0235498,17.2 10,17.2 C13.9764502,17.2 17.2,13.9764502 17.2,10 C17.2,6.0235498 13.9764502,2.8 10,2.8 Z M10,12.7 C10.4970563,12.7 10.9,13.1029437 10.9,13.6 C10.9,14.0970563 10.4970563,14.5 10,14.5 C9.50294373,14.5 9.1,14.0970563 9.1,13.6 C9.1,13.1029437 9.50294373,12.7 10,12.7 Z M10,5.5 C10.4970563,5.5 10.9,5.90294373 10.9,6.4 L10.9,10 C10.9,10.4970563 10.4970563,10.9 10,10.9 C9.50294373,10.9 9.1,10.4970563 9.1,10 L9.1,6.4 C9.1,5.90294373 9.50294373,5.5 10,5.5 Z" id="Icon"></path>
            </g>
        </g>
    </g>
</svg>