<svg width="48" height="48" viewBox="0 0 48 48" fill="none" xmlns="http://www.w3.org/2000/svg">
<path fill-rule="evenodd" clip-rule="evenodd" d="M4.39999 39.6004H43.6V8.40039H4.39999V39.6004ZM40.4 36.4004H7.59999V11.6004H40.4V36.4004ZM29.9333 23.2296L35.9413 28.3416L38.0133 25.9069L30.0667 19.1416L25.3627 22.6376L19.04 16.3789L9.992 26.0323L12.3253 28.2216L19.1253 20.9656L25.064 26.8456L29.9333 23.2296ZM38 30.7363H10V33.9363H38V30.7363ZM31.6347 15.6347C31.6347 16.5375 30.9028 17.2693 30 17.2693C29.0972 17.2693 28.3653 16.5375 28.3653 15.6347C28.3653 14.7319 29.0972 14 30 14C30.9028 14 31.6347 14.7319 31.6347 15.6347Z"
/>
</svg>
