<svg width="48" height="48" viewBox="0 0 48 48" fill="none" xmlns="http://www.w3.org/2000/svg">
<path fill-rule="evenodd" clip-rule="evenodd" d="M33.0373 10.4746C30.3622 8.68723 27.2172 7.7332 24 7.7332C19.6871 7.73744 15.5521 9.4526 12.5024 12.5023C9.45273 15.552 7.73757 19.687 7.73333 23.9999C7.73333 27.2171 8.68736 30.3621 10.4748 33.0371C12.2622 35.7122 14.8027 37.7971 17.775 39.0283C20.7474 40.2595 24.018 40.5816 27.1735 39.954C30.3289 39.3263 33.2273 37.7771 35.5023 35.5021C37.7772 33.2272 39.3264 30.3288 39.9541 27.1733C40.5817 24.0179 40.2596 20.7472 39.0284 17.7749C37.7972 14.8025 35.7123 12.262 33.0373 10.4746ZM13.1849 7.81393C16.3862 5.6749 20.1499 4.5332 24 4.5332C29.1629 4.5332 34.1143 6.58415 37.765 10.2349C41.4157 13.8856 43.4667 18.837 43.4667 23.9999C43.4667 27.85 42.325 31.6137 40.1859 34.815C38.0469 38.0162 35.0066 40.5113 31.4496 41.9847C27.8925 43.4581 23.9784 43.8436 20.2022 43.0925C16.4261 42.3414 12.9574 40.4873 10.235 37.7649C7.51253 35.0424 5.65851 31.5738 4.90738 27.7976C4.15625 24.0215 4.54176 20.1074 6.01515 16.5503C7.48853 12.9932 9.98362 9.95295 13.1849 7.81393ZM28.104 13.5762H25.0827C21.1707 13.5762 20.8667 16.8002 20.8667 17.7895V20.5015H18.7547V23.7335H20.8667V34.4188H24.776V23.7335H27.7973L28.1173 20.5015H24.7627V18.0108C24.7627 17.0588 25.4133 16.7202 25.9707 16.7202H28.104V13.5762Z"/>
</svg>
