<svg xmlns="http://www.w3.org/2000/svg" viewBox="0 0 105 147">
                                    <title>person</title><path d="M52.0894,64.0548 C69.7784,64.0548 84.1154,49.7158 84.1154,32.0288 C84.1154,14.3398 69.7784,-0.0002 52.0894,-0.0002 C34.4004,-0.0002 20.0634,14.3398 20.0634,32.0288 C20.0634,49.7158 34.4004,64.0548 52.0894,64.0548" id="Fill-1"></path> <path d="M104.1788,129.2214 L104.1788,102.3414 C104.1788,102.3414 104.1768,72.4044 75.1578,70.5694 C74.7468,74.3664 73.7188,77.1904 73.7188,77.1904 L62.0028,109.1854 C52.2988,135.6914 42.5948,109.1854 42.5948,109.1854 L30.8798,77.1904 C30.0068,74.8054 29.4498,72.6424 29.1438,70.6674 C21.4478,71.5074 -0.0002,76.1904 -0.0002,102.3414 L-0.0002,129.2214 C-0.0002,129.2214 -0.0002,145.1514 15.9298,145.1514 L88.2488,145.1514 C88.2488,145.1514 104.1788,145.1514 104.1788,129.2214" id="Fill-4"></path> <path d="M56.3777,70.4262 L56.3717,70.4262 C56.3657,70.0172 54.4427,69.6852 52.0707,69.6852 C49.6977,69.6852 47.7757,70.0172 47.7687,70.4262 L47.7677,70.4262 L45.1617,104.3212 L52.3517,109.7392 L59.7767,104.3212 L56.3777,70.4262 Z" id="Fill-7"></path></svg>