<svg width="110" height="110" viewBox="0 0 110 110" xmlns="http://www.w3.org/2000/svg"><path d="M56.00414 19.07764l-.00199 35.21157 8.03394-8.06868-8.03195-27.14289zm-.00207 36.63443l-.00196 34.63451 7.28075-27.29663-7.27879-7.33788zm-.99793-36.6481l-8.03599 27.15656 8.034 8.06873.00199-35.22529zm-.00207 36.6482l-7.27869 7.33778 7.27673 27.28154.00196-34.61932zM55.5 95.76271l-7.26653-26.97539-13.772435 6.95458 6.324164-13.79656L17.5 55.00583l23.500967-7.17653-6.599353-13.54172 13.097166 6.75539L55.5 14.64002v-.01398l.00212.00699.00212-.00699v.01398l8.00122 26.40295 13.09716-6.75539-6.59935 13.54172 23.50097 7.17653-23.2852 6.93951L76.5432 75.7419l-13.77244-6.95458-7.26652 26.97539v.01574l-.00212-.00787-.00212.00787v-.01574zM55 110C24.624339 110 0 85.37566 0 55S24.624339 0 55 0c30.37566 0 55 24.62434 55 55s-24.62434 55-55 55zm0-1c29.82338 0 54-24.17662 54-54S84.82338 1 55 1C25.176624 1 1 25.17662 1 55s24.176624 54 54 54zM22.65946 55.5l24.03828 7.16394L53.804 55.5H22.65946zm-.079035-1H53.8008l-7.27941-7.31089L22.580425 54.5zm19.172612 7.73377l-4.614628 10.0671 8.760441-8.83155-4.145813-1.23555zm6.214803 5.56742l-1.05875-3.93035-8.873977 8.94602 9.932727-5.01567zm-2.2448-21.41388l-8.446404-8.48292 4.692654 9.62921 3.75375-1.14629zm.44901-.96632l1.03185-3.40493-9.09096-4.68903 8.05911 8.09396zM88.34478 55.5H57.20024l7.10625 7.16394L88.34478 55.5zm.07903-1l-23.94096-7.31089L57.20343 54.5h31.22038zM69.2512 62.23377l-4.14581 1.23555 8.76044 8.83155-4.61463-10.0671zm-6.2148 5.56742l9.93273 5.01567-8.87398-8.94602-1.05875 3.93035zm2.24479-21.41388l3.75376 1.14629 4.69265-9.62921-8.44641 8.48292zm-.44901-.96632l8.05912-8.09396-9.09096 4.68903 1.03184 3.40493z" fill="#AA8C41" fill-rule="nonzero"/></svg>