<svg width="32" height="32" viewBox="0 0 32 32" fill="none" xmlns="http://www.w3.org/2000/svg">
<path d="M16.013 31.974C24.8423 31.974 32 24.8163 32 15.987C32 7.15762 24.8423 0 16.013 0C7.18362 0 0.026001 7.15762 0.026001 15.987C0.026001 24.8163 7.18362 31.974 16.013 31.974Z" fill="#F2BF16"/>
<path fill-rule="evenodd" clip-rule="evenodd" d="M31.0887 10.6493H0.91131C0.312449 12.3157 0 14.1123 0 15.987C0 24.8136 7.1603 31.9739 15.987 31.9739C24.8137 31.9739 31.974 24.8136 31.974 15.987C32 14.1123 31.6876 12.3157 31.0887 10.6493Z" fill="#2D714B"/>
<path fill-rule="evenodd" clip-rule="evenodd" d="M31.0887 21.3246H0.911316C3.09846 27.5476 9.035 32 15.987 32C22.9911 31.974 28.9016 27.5216 31.0887 21.3246Z" fill="#B7283A"/>
</svg>
