<svg xmlns="http://www.w3.org/2000/svg" width="100" height="100" viewBox="0 0 100 100"><title>Messenger</title><path d="M84.98 8.23H15.02C6.737 8.23 0 14.97 0 23.252v32.92c0 8.283 6.737 15.022 15.02 15.022h36.07l23.946 19.96c.482.395 1.09.615 1.712.615.39 0 .78-.09 1.13-.254.94-.434 1.547-1.387 1.547-2.423v-17.9h5.554c8.28 0 15.02-6.738 15.02-15.02v-32.92c0-8.284-6.74-15.023-15.02-15.023zm0 57.612h-8.23c-1.476 0-2.678 1.2-2.678 2.676v14.87L53.77 66.464c-.482-.402-1.09-.623-1.712-.623H15.02c-5.333 0-9.67-4.336-9.67-9.67v-32.92c0-5.333 4.337-9.67 9.67-9.67h69.96c5.33 0 9.668 4.337 9.668 9.67v32.92c0 5.334-4.337 9.67-9.67 9.67z"></path></svg>