<svg width="75" height="75" viewBox="0 0 75 75"
  xmlns="http://www.w3.org/2000/svg">
  <path d="M54.23 33.12C57.29 29.35 57.07 23.77 53.56 20.26C51.74 18.45 49.33 17.45 46.76 17.45C44.52 17.45 42.41 18.2 40.7 19.59L39.08 17.97C41.22 16.16 43.91 15.17 46.76 15.17C49.94 15.17 52.93 16.41 55.18 18.65C59.58 23.05 59.81 30.08 55.86 34.75L54.24 33.13L54.23 33.12Z"/>
  <path d="M45.35 71.0001C39.12 71.0001 33.99 66.1901 33.48 60.0801H35.8C36.3 64.9101 40.4 68.6901 45.36 68.6901C46.46 68.6901 47.57 68.5001 48.66 68.1401C52.41 66.8701 54.95 63.1601 54.97 58.9101C55.01 52.7101 57.43 46.8501 61.78 42.4301C65.21 38.9401 67.43 34.5401 68.02 30.0301C68.84 23.8101 66.96 17.5701 62.87 12.9201C58.79 8.27006 52.92 5.61006 46.76 5.61006C35.27 5.61006 25.86 14.6901 25.34 26.0601H23.03C23.56 13.4201 34 3.31006 46.76 3.31006C47.39 3.31006 48.03 3.34006 48.67 3.39006C60.88 4.35006 70.48 14.7101 70.52 26.9901C70.54 33.4001 68.07 39.4201 63.56 43.9301C59.57 47.9101 57.34 53.2101 57.28 58.8401C57.21 64.8601 52.87 70.0401 47.18 70.8801C46.57 70.9701 45.96 71.0201 45.36 71.0201L45.35 71.0001Z"/>
  <path d="M19 59V57C25.62 57 31 51.62 31 45C31 38.38 25.62 33 19 33V31C26.72 31 33 37.28 33 45C33 52.72 26.72 59 19 59Z"/>
  <path d="M12 53.67V51.67C15.61 51.67 18.54 48.74 18.54 45.13C18.54 41.52 15.61 38.59 12 38.59V36.59C16.71 36.59 20.54 40.42 20.54 45.13C20.54 49.84 16.71 53.67 12 53.67Z"/>
  <path d="M6 49.21V47.21C7.15 47.21 8.08 46.2801 8.08 45.1301C8.08 43.9801 7.15 43.05 6 43.05V41.05C8.25 41.05 10.08 42.8801 10.08 45.1301C10.08 47.3801 8.25 49.21 6 49.21Z"/>
</svg>
