<?xml version="1.0" encoding="utf-8"?>
<!-- Generator: Adobe Illustrator 24.0.3, SVG Export Plug-In . SVG Version: 6.00 Build 0)  -->
<svg version="1.1" id="Ebene_1" xmlns="http://www.w3.org/2000/svg" xmlns:xlink="http://www.w3.org/1999/xlink" x="0px" y="0px"
	 viewBox="0 0 24 24" style="enable-background:new 0 0 24 24;" xml:space="preserve">
<style type="text/css">
	.st0{fill:#7F7F7F;}
</style>
<path class="st0" d="M11,15h2v3h-2V15z"/>
<path class="st0" d="M19,10h-2V7c0-2.7-2.2-5-5-5S7,4.2,7,7v3H5c-0.6,0-1,0.4-1,0.9V21c0,0.6,0.5,1,1,1h14c0.6,0,1-0.4,1-0.9V10.9
	C20,10.4,19.5,10,19,10z M9,7c0-1.6,1.3-3,3-3c1.6,0,3,1.3,3,3v3H9V7z M18,20H6v-8h12V20z"/>
</svg>
