<?xml version="1.0" encoding="UTF-8"?>
<svg width="20px" height="20px" viewBox="0 0 20 20" version="1.1" xmlns="http://www.w3.org/2000/svg" xmlns:xlink="http://www.w3.org/1999/xlink">
    <!-- Generator: sketchtool 52.6 (67491) - http://www.bohemiancoding.com/sketch -->
    <title>2C069EAD-687D-4620-A7C1-E46D2B2DE434</title>
    <desc>Created with sketchtool.</desc>
    <g id="Übersicht" stroke="none" stroke-width="1" fill-rule="evenodd">
        <g id="ICONS" transform="translate(-250.000000, -749.000000)" fill-rule="nonzero">
            <g id="Social-Media" transform="translate(100.000000, 596.000000)">
                <g id="Icon/20x20/Whats-app" transform="translate(150.000000, 153.000000)">
                    <path d="M14.5818427,11.9850787 C14.3330256,11.8611939 13.1097588,11.2621562 12.8816646,11.1794713 C12.6535704,11.096834 12.4876924,11.0555391 12.3218144,11.3033561 C12.1559364,11.5512682 11.6791206,12.1090585 11.5339177,12.2743808 C11.3888102,12.4395604 11.243655,12.4603267 10.9948857,12.3363469 C10.746021,12.2123671 9.94427723,11.9509118 8.99389265,11.1071933 C8.25417411,10.4506089 7.75482111,9.63972676 7.60966591,9.39176715 C7.46455846,9.14390258 7.59424317,9.00989605 7.71881881,8.88639145 C7.8307411,8.77543214 7.96763583,8.59713692 8.09202047,8.45258093 C8.21645285,8.30797743 8.25789848,8.20462132 8.34083749,8.03948916 C8.4237765,7.87416691 8.38233087,7.72956341 8.32011468,7.60563113 C8.25789848,7.48169884 7.76026443,6.2627621 7.55294079,5.76689041 C7.35096497,5.28413424 7.14583775,5.34952183 6.99309055,5.34182358 C6.84812634,5.33464805 6.68205733,5.33312741 6.51622706,5.33312741 C6.35034905,5.33312741 6.08076146,5.39509356 5.852715,5.64295812 C5.62462079,5.89091773 4.98183154,6.49000297 4.98183154,7.70884467 C4.98183154,8.92773389 5.87343782,10.1051856 5.9978702,10.2704604 C6.12225484,10.4357826 7.75238595,12.9369528 10.2484347,14.0096228 C10.8420908,14.2647579 11.3055847,14.4171547 11.666897,14.5312029 C12.2629883,14.7197624 12.8054104,14.6931512 13.2340957,14.6293793 C13.7121529,14.5582893 14.7062273,14.0303416 14.9135987,13.4519275 C15.1209223,12.8734185 15.1209223,12.3776418 15.0587061,12.2743808 C14.9965377,12.1710722 14.8306597,12.1090585 14.5818427,11.9850787 M10.0418273,18.1543689 L10.0384849,18.1543689 C8.55331797,18.1537986 7.09660913,17.7567211 5.82578489,17.0061895 L5.52358513,16.8276567 L2.39095445,17.6454767 L3.22707706,14.6058093 L3.03030581,14.2941729 C2.20177521,12.9826671 1.76420867,11.4669201 1.7648294,9.91044847 C1.76664384,5.36876745 5.47965658,1.67379863 10.0451219,1.67379863 C12.2558738,1.67455895 14.3340283,2.53253341 15.8967387,4.08952777 C17.4594013,5.64647461 18.3194936,7.71611524 18.3186819,9.91705376 C18.3168197,14.4591149 14.6038069,18.1543689 10.0418273,18.1543689 M17.0860564,2.90642115 C15.2059623,1.03313335 12.7056639,0.00104544105 10.0417318,0 C4.55290747,0 0.0856606679,4.44554797 0.0834642406,9.90978319 C0.0827480142,11.6565251 0.541276105,13.3614494 1.41273254,14.8644609 L0,20 L5.27896997,18.6218236 C6.73348238,19.4113692 8.37110999,19.8275497 10.0377686,19.82812 L10.0418273,19.82812 L10.041875,19.82812 C15.5301263,19.82812 19.9978028,15.3820968 19.9999993,9.91771904 C20.001002,7.26966439 18.9661505,4.77966142 17.0860564,2.90642115" id="🎨"></path>
                </g>
            </g>
        </g>
    </g>
</svg>