<svg xmlns="http://www.w3.org/2000/svg" width="100" height="100" viewBox="0 0 100 100"><title>Location</title><path d="M50.003 0C31.62 0 16.665 14.953 16.665 33.333c0 5.853 1.55 11.617 4.48 16.667l28.858 49.997 28.852-49.994c2.93-5.06 4.48-10.824 4.48-16.67C83.335 14.953 68.383 0 50.003 0zm25.365 47.986L50.003 91.94 24.63 47.984c-2.576-4.44-3.938-9.507-3.938-14.65 0-16.158 13.148-29.305 29.31-29.305 16.16 0 29.306 13.146 29.306 29.305 0 5.138-1.363 10.204-3.94 14.653z"></path><path d="M50.003 21.926c-6.292 0-11.41 5.116-11.41 11.407 0 6.292 5.118 11.41 11.41 11.41 6.29 0 11.407-5.118 11.407-11.41 0-6.29-5.117-11.407-11.407-11.407zm0 18.788c-4.07 0-7.382-3.312-7.382-7.382s3.313-7.38 7.383-7.38c4.068 0 7.38 3.31 7.38 7.38s-3.312 7.382-7.38 7.382z"></path></svg>