<svg width="64" height="64" viewBox="0 0 64 64" fill="none" xmlns="http://www.w3.org/2000/svg">
<path fill-rule="evenodd" clip-rule="evenodd" d="M5.99466 52.5438H58.0978V11.7012H5.99466V52.5438ZM56.6755 51.1216H7.41688V13.1234H56.6755V51.1216ZM40.4622 29.07L49.856 37.0629L50.7769 35.9785L40.5227 27.2531L33.8204 32.2309L25.1058 23.6016L13.4507 36.0389L14.4853 37.0096L25.1449 25.6425L33.6889 34.1011L40.4622 29.07ZM51.7547 43.1504H12.3342V44.5726H51.7547V43.1504ZM42.7947 20.3454C42.7947 21.6159 41.7647 22.6458 40.4942 22.6458C39.2237 22.6458 38.1938 21.6159 38.1938 20.3454C38.1938 19.0749 39.2237 18.0449 40.4942 18.0449C41.7647 18.0449 42.7947 19.0749 42.7947 20.3454Z"
/>
</svg>
