<svg width="24" height="24" viewBox="0 0 24 24" fill="none"
  xmlns="http://www.w3.org/2000/svg">
  <path fill-rule="evenodd" clip-rule="evenodd" d="M2.28667 2.32035L2.316 9.03368L3.916 9.02702L3.8984 5.05662L8.78842 9.94664L9.91979 8.81527L5.01326 3.90874L9.03333 3.89102L9.02667 2.29102L2.28667 2.32035ZM18.9461 3.91123L14.055 8.80225L15.1864 9.93362L20.0916 5.02843L20.1093 9.04647L21.7093 9.0398L21.68 2.2998L14.9667 2.3278L14.9733 3.9278L18.9461 3.91123ZM9.02667 21.6987L2.28667 21.6694L2.316 14.9561L3.916 14.9627L3.8984 18.9324L8.78916 14.0416L9.92053 15.173L5.01255 20.081L9.03333 20.0987L9.02667 21.6987ZM21.68 21.6895L14.9667 21.6602L14.9733 20.0602L18.9455 20.0778L14.0537 15.186L15.1851 14.0547L20.0916 18.9612L20.1093 14.9429L21.7093 14.9495L21.68 21.6895Z"/>
</svg>
