<svg width="100" height="100" viewBox="0 0 100 100"
  xmlns="http://www.w3.org/2000/svg">
  <path d="M34.2 76.905a21.207 21.207 0 0113.4 5.4c3.5 3 5.5 6.7 5.5 8.3a3.427 3.427 0 01-1.3 2.5 13.806 13.806 0 01-3.9 2.4 35.426 35.426 0 01-13.7 2.4 34.888 34.888 0 01-13.6-2.4 10.883 10.883 0 01-3.9-2.4 3.43 3.43 0 01-1.2-2.5c0-1.6 2-5.3 5.5-8.3a20.24 20.24 0 0113.2-5.4m0-2.2a23.789 23.789 0 00-15 5.9c-3.8 3.3-6.2 7-6.2 10a5.438 5.438 0 001.9 4 16.382 16.382 0 004.7 2.9 39.016 39.016 0 0014.6 2.5c4.982.116 9.94-.733 14.6-2.5a15.1 15.1 0 004.7-2.9 5.826 5.826 0 001.9-4c0-3-2.5-6.7-6.3-9.9a22.848 22.848 0 00-14.9-6m35.6-13.1a21.207 21.207 0 0113.4 5.4c3.5 3 5.5 6.6 5.5 8.2a3.661 3.661 0 01-1.2 2.5 12 12 0 01-4 2.4 37.391 37.391 0 01-13.6 2.3 37.97 37.97 0 01-13.7-2.3 13.806 13.806 0 01-3.9-2.4 3.6 3.6 0 01-1.3-2.5c0-1.6 2-5.3 5.4-8.2a20.89 20.89 0 0113.4-5.4m0-2.3c-5.9 0-11.1 2.7-15 5.9-3.8 3.3-6.3 6.9-6.3 9.9a5.826 5.826 0 001.9 4 14.542 14.542 0 004.6 2.9 39.57 39.57 0 0014.7 2.5 39.57 39.57 0 0014.7-2.5 16.382 16.382 0 004.7-2.9 5.826 5.826 0 001.9-4c0-3-2.5-6.6-6.3-9.9a23.073 23.073 0 00-14.9-5.9m-35.6-10c4.3 0 7.8 3.2 7.8 7.2a22.453 22.453 0 01-2.5 8.6 15.97 15.97 0 01-2.6 3.7 3.792 3.792 0 01-2.6 1.3 3.792 3.792 0 01-2.6-1.3 13.447 13.447 0 01-2.6-3.7 22.941 22.941 0 01-2.5-8.6c-.2-4.1 3.3-7.2 7.6-7.2m0-2.3c-5.6 0-10.2 4.3-10.2 9.5a23.314 23.314 0 002.8 9.6 17.565 17.565 0 003.1 4.3 6.646 6.646 0 004.3 2 6.89 6.89 0 004.4-2 15.844 15.844 0 003.1-4.3 22.632 22.632 0 002.7-9.6c0-5.2-4.6-9.5-10.2-9.5m-2.2-12.1c-.8-.027-1.471.6-1.5 1.4.064.783.714 1.39 1.5 1.4a1.394 1.394 0 001.5-1.4c.1-.8-.6-1.4-1.5-1.4m37.8-1c4.3 0 7.8 3.2 7.8 7.2a22.453 22.453 0 01-2.5 8.6 15.97 15.97 0 01-2.6 3.7 3.25 3.25 0 01-5.2 0 13.621 13.621 0 01-2.7-3.7 22.941 22.941 0 01-2.5-8.6 7.418 7.418 0 017.7-7.2m0-2.3c-5.6 0-10.2 4.3-10.2 9.4a23.314 23.314 0 002.8 9.6 16.876 16.876 0 003.1 4.3 6.646 6.646 0 004.3 2 6.89 6.89 0 004.4-2 15.844 15.844 0 003.1-4.3 23.018 23.018 0 002.7-9.6c0-5.1-4.6-9.4-10.2-9.4M32 18.705h-.2c-.555.078-.975.54-1 1.1v11.8a1.2 1.2 0 102.4 0v-11.8c.1-.5-.5-1.1-1.2-1.1m-16.8-4.1h33.7a4.617 4.617 0 014.8 4.5v17.9a4.617 4.617 0 01-4.8 4.5H26.7c-.296-.008-.583.1-.8.3-.1.1-.2.1-.3.2l-7.4 4.6c-.1 0-.1.1-.2.1v-4.1a1.2 1.2 0 00-1.2-1.1h-1.6a4.68 4.68 0 01-4.8-4.5v-17.9a4.555 4.555 0 014.8-4.5m23.5-12.4h33.7a4.617 4.617 0 014.8 4.5v9.2a4.617 4.617 0 01-4.8 4.5h-1.7a1.2 1.2 0 00-1.2 1.1v4.1l-.1-.1-7.4-4.6a1.438 1.438 0 01-.3-.2 1.135 1.135 0 00-.8-.3h-4.8v-1.4a6.949 6.949 0 00-7.2-6.7h-15v-5.6a4.68 4.68 0 014.8-4.5m0-2.2a6.949 6.949 0 00-7.2 6.7v5.6H15.2a6.949 6.949 0 00-7.2 6.7v18a6.949 6.949 0 007.2 6.7h.5v2.8c-.09.91.386 1.783 1.2 2.2a2.636 2.636 0 002.7-.3l7.4-4.6.1-.1h21.8a6.949 6.949 0 007.2-6.7v-14.4h4.4l.1.1 7.4 4.6a2.886 2.886 0 002.7.3 2.316 2.316 0 001.2-2.2v-2.8h.5a6.949 6.949 0 007.2-6.7v-9.2a6.949 6.949 0 00-7.2-6.7H38.7z"/>
</svg>