<svg width="24" height="24" viewBox="0 0 24 24" fill="none" xmlns="http://www.w3.org/2000/svg">
<path d="M10.238 14.1534L14.7697 22.4639C14.8315 22.6179 14.937 22.7506 15.0733 22.8454C15.2096 22.9402 15.3706 22.993 15.5366 22.9973H18.7568C18.8175 23.0051 18.8792 22.9959 18.9351 22.9709C18.991 22.9459 19.0389 22.906 19.0736 22.8556C19.1036 22.8004 19.1178 22.7379 19.1143 22.675C19.1109 22.6122 19.09 22.5516 19.0541 22.5L14.5113 14.1868V14.1145L14.5308 14.0701L21.6409 1.49193C21.6774 1.44033 21.6969 1.37869 21.6969 1.3155C21.6969 1.2523 21.6774 1.19066 21.6409 1.13906C21.6088 1.09032 21.5637 1.05165 21.5105 1.02755C21.4574 1.00346 21.3986 0.994914 21.3408 1.00292H18.0955C17.9338 1.01289 17.7782 1.06858 17.6469 1.16352C17.5156 1.25845 17.4139 1.38871 17.3537 1.53916C12.9637 9.32816 10.5918 13.5329 10.238 14.1534ZM6.42042 9.85514L3.05014 15.8205C3.01737 15.873 3 15.9337 3 15.9956C3 16.0575 3.01737 16.1181 3.05014 16.1706C3.07961 16.2233 3.12351 16.2664 3.17667 16.295C3.22983 16.3235 3.29004 16.3363 3.35021 16.3318H6.56768C6.84553 16.3318 7.1067 16.1512 7.3262 15.7761C9.44062 12.0557 10.5242 10.1052 10.7465 9.70788L8.57651 5.9236C8.5111 5.77103 8.4044 5.63974 8.26843 5.54452C8.13246 5.44929 7.97261 5.3939 7.80688 5.38457H4.58941C4.35602 5.38457 4.29489 5.48738 4.27544 5.52072C4.25599 5.55406 4.18375 5.68743 4.28933 5.8847L6.4482 9.61063L6.50099 9.66343L6.43709 9.84403L6.42042 9.85514Z"/>
</svg>
