<svg width="82" height="82" xmlns="http://www.w3.org/2000/svg"><path d="M40.636364.36364C63.079208.36364 81.272727 18.55716 81.272727 41c0 22.44284-18.193519 40.63636-40.636363 40.63636C18.19352 81.63636 0 63.44284 0 41 0 18.55716 18.19352.36364 40.636364.36364zm0 3C19.850374 3.36364 3 20.21401 3 41s16.850374 37.63636 37.636364 37.63636c20.785989 0 37.636363-16.85037 37.636363-37.63636S61.422353 3.36364 40.636364 3.36364zm-.806819 11.95309c.744233-.06784 1.454189.32658 1.789773.99431l6.875 13.75 14.545455 2.55682c.663566.12103 1.205616.59944 1.408163 1.24282.202547.64339.032309 1.34603-.442254 1.82536L52.897727 46.794l3.409091 15.39773c.138482.69028-.13396 1.39848-.699375 1.81798-.565414.4195-1.322182.47491-1.94267.14224L40 56.45309l-13.664773 7.69886c-.620488.33267-1.377256.27726-1.94267-.14224-.565415-.4195-.837857-1.1277-.699375-1.81798l3.409091-15.48296-11.107955-10.9375c-.474563-.47933-.644801-1.18197-.442254-1.82536.202547-.64338.744597-1.12179 1.408163-1.24282l14.545455-2.64205 6.875-13.75c.28012-.55829.827186-.93372 1.448863-.99431zM40 21.169l-5.653409 11.30682c-.252628.52045-.73784.88963-1.306818.99431l-11.988637 2.1875 9.318182 9.11932c.445608.44603.628366 1.09106.482955 1.70455l-2.755682 12.52841 11.022727-6.19318c.547942-.30334 1.213422-.30334 1.761364 0l11.022727 6.19318-2.755682-12.41478c-.134994-.6045.047005-1.23614.482955-1.67613l9.318182-9.31818-11.988637-2.13069c-.568978-.10468-1.05419-.47386-1.306818-.99431L40 21.169z" fill="#B4A266" fill-rule="nonzero"/></svg>