<?xml version="1.0" encoding="UTF-8"?>
<svg viewBox="0 0 24 24" version="1.1" xmlns="http://www.w3.org/2000/svg" xmlns:xlink="http://www.w3.org/1999/xlink">
    <path d="M12,7.38 C9.44844446,7.38 7.38,9.44844446 7.38,12 C7.38,14.5515555 9.44844446,16.62 12,16.62 C14.5515555,16.62 16.62,14.5515555 16.62,12 C16.62,10.7746998 16.1332514,9.59958474 15.2668333,8.73316667 C14.4004153,7.8667486 13.2253002,7.38 12,7.38 Z M12,3 C13.5808333,3.02916667 14.7252604,3.04557292 15.4332812,3.04921875 L15.71,3.05 C16.4579435,3.07033476 17.1976003,3.21218676 17.9,3.47 C19.1239941,3.92989823 20.0971346,4.88488312 20.58,6.1 C20.8378132,6.80239966 20.9796652,7.54205652 21,8.29 L21,8.29 L21.0009088,8.50934336 C21.001792,8.6141984 21.00328,8.712896 21.0052,8.81024 L21.0095648,9.00454656 C21.02408,9.590592 21.05,10.2432 21.05,12 C21.05,13.7568 21.02408,14.388672 21.0095648,14.9780352 L21.0052,15.1744 C21.00328,15.27328 21.001792,15.37432 21.0009088,15.4825312 L21,15.71 C20.9691265,16.477625 20.810275,17.2347048 20.53,17.95 C20.0584237,19.1550486 19.1050486,20.1084237 17.9,20.58 C17.1976003,20.8378132 16.4579435,20.9796652 15.71,21 C14.9804,21.038 14.62624,21.04712 13.4271667,21.0493088 L12.2827539,21.0499968 L12.2827539,21.0499968 L12,21.05 C10.2432,21.05 9.611328,21.02408 9.0219648,21.0095648 L8.8256,21.0052 C8.72672,21.00328 8.62568,21.001792 8.5174688,21.0009088 L8.29,21 C7.53927407,20.9636554 6.79952963,20.8048975 6.1,20.53 C4.89495135,20.0584237 3.94157626,19.1050486 3.47,17.9 C3.21218676,17.1976003 3.07033476,16.4579435 3.05,15.71 L3.05,15.71 L3.05,8.29 C3.07033476,7.54205652 3.21218676,6.80239966 3.47,6.1 C3.92989823,4.87600588 4.88488312,3.90286538 6.1,3.42 C6.80239966,3.16218676 7.54205652,3.02033476 8.29,3 L8.29,3 Z M15.64,4.7 L8.35,4.7 C7.77995625,4.70963322 7.21552446,4.81440799 6.68,5.01 C6.30065314,5.1602507 5.95918341,5.39245011 5.68,5.69 C5.38245011,5.96918341 5.1502507,6.31065314 5,6.69 C4.80671863,7.22927344 4.70531026,7.7971603 4.7,8.37 L4.7,8.37 L4.7,15.65 C4.70963322,16.2200438 4.81440799,16.7844755 5.01,17.32 C5.1602507,17.6993469 5.39245011,18.0408166 5.69,18.32 C5.96918341,18.6175499 6.31065314,18.8497493 6.69,19 C7.22552446,19.195592 7.78995625,19.3003668 8.36,19.31 C8.512,19.318 8.647104,19.32472 8.77665792,19.3303648 L8.96824448,19.3380512 C9.38047552,19.3530688 9.79400448,19.3578112 10.5983155,19.3593088 L12.536023,19.3590912 C14.443264,19.35232 14.72,19.31 15.64,19.31 C16.2100438,19.3003668 16.7744755,19.195592 17.31,19 C18.0778469,18.6871088 18.6871088,18.0778469 19,17.31 C19.1932814,16.7707266 19.2946897,16.2028397 19.3,15.63 C19.308,15.478 19.31472,15.342896 19.3203648,15.2133421 L19.3280512,15.0217555 C19.3430688,14.6095245 19.3478112,14.1959955 19.3493088,13.3916845 L19.3490912,11.453977 C19.34232,9.546736 19.3,9.27 19.3,8.35 C19.2903668,7.77995625 19.185592,7.21552446 18.99,6.68 C18.8397493,6.30065314 18.6075499,5.95918341 18.31,5.68 C18.0308166,5.38245011 17.6893469,5.1502507 17.31,5 C16.7786177,4.78046628 16.214054,4.7320027 15.64,4.7 L15.64,4.7 Z M12,9 C13.6568542,9 15,10.3431458 15,12 C15,12.7956495 14.6839295,13.5587112 14.1213203,14.1213203 C13.5587112,14.6839295 12.7956495,15 12,15 C10.3431458,15 9,13.6568542 9,12 C9,10.3431458 10.3431458,9 12,9 Z M16.8,6.12 C17.3964675,6.12 17.88,6.60353247 17.88,7.2 C17.88,7.79646753 17.3964675,8.28 16.8,8.28 C16.2035325,8.28 15.72,7.79646753 15.72,7.2 C15.72,6.60353247 16.2035325,6.12 16.8,6.12 Z" id="Icon"></path>
</svg>