<svg width="24" height="24" viewBox="0 0 24 24" fill="none" xmlns="http://www.w3.org/2000/svg">
<path fill-rule="evenodd" clip-rule="evenodd" d="M1.27648 23H6.004V8.15532H1.27648V23ZM3.60378 6.13047H3.6372C5.2809 6.13047 6.34429 5.01474 6.30783 3.56524C6.27137 2.11573 5.2809 1 3.66759 1C2.05427 1 1 2.14116 1 3.56524C1 4.98931 2.02389 6.13047 3.60378 6.13047ZM18.2816 23H22.997H23V14.481C23 9.92906 20.6757 7.80566 17.5737 7.80566C15.0671 7.80566 13.946 9.24563 13.3201 10.2565V8.15532H8.60475C8.66551 9.54761 8.60475 23 8.60475 23H13.308V14.7067C13.2897 14.2986 13.3421 13.8904 13.4629 13.502C13.6396 12.9748 13.9683 12.5181 14.4037 12.1947C14.8391 11.8713 15.3596 11.6972 15.8935 11.6964C17.601 11.6964 18.2816 13.0601 18.2816 15.0532V23Z"/>
</svg>
