<svg width="75" height="75" viewBox="0 0 75 75"
  xmlns="http://www.w3.org/2000/svg">
  <path d="M67.9083 49.6125C67.35 48.2792 65.5542 47.0875 62.3375 48.125C60.0708 48.8542 52.9667 51.1209 49.6208 52.1875C49.6792 51.8792 49.7125 51.5667 49.7125 51.25C49.7125 49.3417 48.6042 47.4125 46.4875 47.4125C44.3708 47.4125 38.6667 47.35 37.2542 47.3334C29.8542 40.6667 19.5042 41.3375 16.2833 41.7459V38.6584H6.875V64.5542H16.2833V59.2417C20.1083 60.6125 32.5667 65.075 34.1625 65.6375C35.2542 66.025 37.2583 66.2834 39.2667 66.2834C40.9917 66.2834 42.7208 66.0917 43.8917 65.625C45.7625 64.8792 56.6417 59.0542 62.4833 55.925C63.9958 55.1125 65.1167 54.5167 65.5458 54.2917C67.9833 53.0167 68.4792 50.9709 67.9083 49.6125V49.6125ZM14.6167 62.8875H8.54167V40.325H14.6167V62.8875ZM64.775 52.8167C64.3417 53.0417 63.2208 53.6459 61.7 54.4584C56.3 57.35 45.0583 63.3709 43.275 64.0792C41.1417 64.9292 36.4292 64.6709 34.7167 64.0667C33.0333 63.4709 19.2292 58.525 16.2833 57.4709V43.4292C19.0083 43.0834 29.3792 42.275 36.3583 48.7709L36.5958 48.9917H36.9167C36.9875 48.9959 44.0792 49.0792 46.4875 49.0792C47.7208 49.0792 48.0458 50.5 48.0458 51.25C48.0458 52 47.7208 53.425 46.4875 53.425H31.3083V55.0917H46.4875C47.3375 55.0917 48.0208 54.775 48.5417 54.2792C50.0292 53.8042 60.0667 50.6042 62.85 49.7084C64.8542 49.0625 66.0667 49.5167 66.375 50.2542C66.6708 50.9542 66.2167 52.0584 64.7792 52.8125L64.775 52.8167ZM42.3958 39.1875L56.4583 25.125C59.2583 22.325 60.2375 18.525 59.0708 14.9584C58.0042 11.6959 55.3042 9.27921 52.1958 8.80004C50.1833 8.48754 46.325 8.75421 42.4 13.6834C38.475 8.75421 34.6208 8.49171 32.6042 8.80004C29.4958 9.27921 26.7958 11.6959 25.7292 14.9584C24.5625 18.5209 25.5375 22.3209 28.3417 25.125L42.4042 39.1875H42.3958ZM27.3083 15.4792C28.1833 12.8084 30.3583 10.8334 32.8542 10.45C33.1667 10.4 33.4792 10.3792 33.7917 10.3792C36.5208 10.3792 39.3042 12.1834 41.7208 15.5542L42.4 16.5L43.0792 15.5542C45.7708 11.8 48.9208 9.98337 51.9458 10.45C54.4417 10.8334 56.6167 12.8084 57.4917 15.4792C58.475 18.4792 57.6708 21.5625 55.2875 23.9459L42.4042 36.8292L29.5208 23.9459C27.1375 21.5625 26.3333 18.475 27.3167 15.4792H27.3083Z"/>
</svg>
