<svg xmlns="http://www.w3.org/2000/svg" width="48" height="48" viewBox="0 0 48 48">
  <path fill-rule="evenodd" d="M32.82 10.799A15.877 15.877 0 0 0 24 8.123 15.893 15.893 0 0 0 8.123 24a15.877 15.877 0 1 0 24.698-13.201ZM13.445 8.202a19 19 0 1 1 21.112 31.596A19 19 0 0 1 13.444 8.202Z" clip-rule="evenodd"/>
  <path d="M32.806 14.008h-3.064L24.7 20.401 20.325 14H14l7.555 10.934L14.385 34h3.08l5.516-6.997L27.821 34H34l-7.882-11.522 6.688-8.47Zm-2.435 17.963h-1.703L17.578 15.93h1.825L30.37 31.97Z"/>
</svg>