<svg width="26" height="27" viewBox="0 0 26 27" fill="none" xmlns="http://www.w3.org/2000/svg">
<path fill-rule="evenodd" clip-rule="evenodd" d="M17.1959 3.06828C15.8839 2.52762 14.4779 2.25188 13.0589 2.25694L13.0571 2.26227C7.11046 2.26405 2.26779 7.07649 2.26779 12.9912C2.26709 14.8725 2.76257 16.7207 3.70424 18.3494L4.15402 19.1245L3.91579 19.9867L3.06246 23.0872L6.33891 22.232L7.15313 22.0187L7.89446 22.4223C9.47845 23.2776 11.2499 23.7265 13.05 23.7289C19.002 23.7289 23.8447 18.9147 23.8447 13C23.8511 11.5893 23.5766 10.1914 23.0373 8.88784C22.4979 7.58425 21.7046 6.40104 20.7034 5.40716C19.6999 4.40383 18.5078 3.60894 17.1959 3.06828ZM0.136239 12.984C0.139794 5.88985 5.93564 0.125085 13.0544 0.128936C14.7479 0.125304 16.4256 0.455283 17.9916 1.10003C19.5579 1.74489 20.9818 2.69198 22.182 3.88722C23.3822 5.08246 24.3352 6.50243 24.9865 8.06603C25.6378 9.62963 25.9748 11.3062 25.978 13C25.978 20.0863 20.1825 25.8569 13.05 25.8569C10.8931 25.8571 8.77022 25.3187 6.87402 24.2907L0.0224609 26.0792L1.86068 19.4143C0.7279 17.4608 0.132898 15.2422 0.136239 12.984ZM16.5611 14.5573C16.842 14.6621 18.3496 15.3981 18.6571 15.551C18.7138 15.5794 18.7669 15.6051 18.8164 15.6291C19.0338 15.7346 19.1801 15.8055 19.2438 15.9084C19.322 16.0346 19.322 16.6461 19.066 17.359C18.81 18.0719 17.5851 18.7244 16.9949 18.8115C16.3501 18.9214 15.6886 18.88 15.0625 18.6906C14.4685 18.5089 13.8846 18.2958 13.3131 18.0524C10.3614 16.7837 8.3829 13.8958 8.0992 13.4817C8.08713 13.4641 8.07812 13.4509 8.07224 13.4426C8.065 13.4323 8.05535 13.4189 8.04353 13.4025C7.82037 13.0921 6.8278 11.7119 6.8278 10.2852C6.81852 9.80976 6.90859 9.33757 7.09227 8.8989C7.27594 8.46022 7.54917 8.06471 7.89447 7.73769C7.99715 7.62115 8.12278 7.52705 8.26349 7.46128C8.4042 7.39551 8.55697 7.35949 8.71224 7.35547C8.91669 7.35547 9.11224 7.35725 9.30069 7.36614C9.32475 7.36727 9.34973 7.3667 9.37554 7.3661C9.55195 7.36204 9.76715 7.35709 9.99047 7.89058C10.0774 8.09825 10.2055 8.40863 10.3399 8.734C10.6011 9.36679 10.8858 10.0563 10.9362 10.1572C10.9849 10.2368 11.0128 10.3274 11.0175 10.4205C11.0221 10.5137 11.0034 10.6065 10.9629 10.6906C10.8845 10.873 10.7809 11.0435 10.6554 11.1972C10.606 11.2547 10.5564 11.3147 10.5067 11.3749C10.4027 11.5008 10.2984 11.6271 10.1949 11.7306C10.042 11.8835 9.8838 12.0488 10.0616 12.3546C10.5222 13.1401 11.0974 13.8525 11.7682 14.4684C12.4964 15.1124 13.3307 15.6255 14.234 15.9848C14.5434 16.1377 14.7194 16.1128 14.8989 15.9084C15.0785 15.7039 15.6669 15.0159 15.8714 14.7101C16.0758 14.4044 16.2802 14.4524 16.5611 14.5573Z" fill="#65CF73"/>
</svg>
