<svg xmlns="http://www.w3.org/2000/svg" width="100" height="100" viewBox="0 0 100 100"><path d="M80.92 51.272c-3.508 0-6.355 2.85-6.355 6.35v27c0 1.466-1.19 2.656-2.65 2.656H15.378c-1.467 0-2.658-1.19-2.658-2.657V28.096c0-1.467 1.19-2.658 2.658-2.658h26.99c3.518 0 6.365-2.847 6.365-6.354 0-3.52-2.847-6.36-6.365-6.36h-26.99C6.9 12.722.005 19.612.005 28.094V84.62C.005 93.103 6.9 100 15.378 100h56.537c8.467 0 15.365-6.898 15.365-15.38V57.624c0-3.5-2.846-6.35-6.36-6.35"/><path d="M84.622 0H58.264c-3.508 0-6.354 2.854-6.354 6.36s2.846 6.355 6.354 6.355H78.29L36.095 54.922c-2.483 2.483-2.483 6.506 0 8.99 1.234 1.233 2.868 1.858 4.49 1.858 1.628 0 3.258-.625 4.5-1.86L87.28 21.72v20.01c0 3.516 2.846 6.362 6.36 6.362 3.508 0 6.354-2.846 6.354-6.36V15.37C99.994 6.893 93.104 0 84.622 0"/></svg>