<svg width="32" height="32" viewBox="0 0 32 32" fill="none" xmlns="http://www.w3.org/2000/svg">
<path fill-rule="evenodd" clip-rule="evenodd" d="M2.93333 26.3996H29.0667V5.59961H2.93333V26.3996ZM26.9333 24.2663H5.06667V7.73294H26.9333V24.2663ZM19.9556 15.4861L23.9609 18.8941L25.3422 17.271L20.0444 12.7607L16.9084 15.0914L12.6933 10.9189L6.66133 17.3545L8.21689 18.8141L12.7502 13.9767L16.7093 17.8967L19.9556 15.4861ZM25.3333 20.4902H6.66667V22.6236H25.3333V20.4902ZM21.0898 10.4228C21.0898 11.0247 20.6019 11.5126 20 11.5126C19.3981 11.5126 18.9102 11.0247 18.9102 10.4228C18.9102 9.82092 19.3981 9.33301 20 9.33301C20.6019 9.33301 21.0898 9.82092 21.0898 10.4228Z"/>
</svg>
