<svg xmlns="http://www.w3.org/2000/svg" width="100" height="100" fill="#424242" viewBox="0 0 100 100"><path d="M100 93.82V36.265c0-2.34-1.903-4.243-4.243-4.243H66.042v6.312H90.1c2.278 0 4.124 1.855 4.124 4.134v45.154c0 2.283-1.846 4.13-4.124 4.13H10.07c-2.282 0-4.133-1.847-4.133-4.13V42.468c0-2.278 1.85-4.134 4.134-4.134h24.22v-6.317H4.243C1.903 32.017 0 33.925 0 36.265V93.82c0 2.345 1.903 4.243 4.243 4.243h91.514c2.34.005 4.243-1.898 4.243-4.243"/><path d="M34.884 46.81c-1.12-1.143-2.947-1.167-4.082-.047-1.144 1.11-1.167 2.938-.052 4.082l14.812 15.17 4.034 4.128 4.134-4.034 15.396-15.04c1.144-1.117 1.162-2.94.047-4.083-1.11-1.14-2.942-1.163-4.086-.052L52.97 58.767V3.754c0-1.6-1.29-2.89-2.884-2.89-1.595 0-2.886 1.29-2.886 2.89V59.42L34.884 46.81z"/></svg>