<svg width="24" height="24" viewBox="0 0 24 24" xmlns="http://www.w3.org/2000/svg"><path d="M17.175 0C20.952 0 24 3.26 24 7.265c0 3.71-2.213 7.615-5.886 11.505a43.976 43.976 0 01-5.318 4.764l-.115.086-.393.288a.5.5 0 01-.576 0 10.572 10.572 0 01-.12-.086l-.632-.474a43.976 43.976 0 01-5.073-4.578C2.212 14.88 0 10.975 0 7.265 0 3.26 3.048 0 6.825 0c1.873 0 3.687 1.196 5.088 3.015l.087.116.087-.116C13.43 1.271 15.152.101 16.941.006zm0 1c-1.704 0-3.47 1.315-4.757 3.274a.5.5 0 01-.836 0C10.295 2.314 8.53 1 6.825 1 3.615 1 1 3.798 1 7.265c0 3.392 2.1 7.097 5.614 10.818a42.989 42.989 0 004.707 4.28l.486.374.193.143.679-.518.257-.204.543-.44a42.989 42.989 0 003.907-3.635C20.901 14.363 23 10.657 23 7.265 23 3.798 20.384 1 17.175 1zM12.5 7.5v4h4v1h-4v4h-1v-4h-4v-1h4v-4h1z" fill="#7F7F7F" fill-rule="nonzero"/></svg>