<svg width="24" height="24" viewBox="0 0 24 24" fill="none" xmlns="http://www.w3.org/2000/svg">
<path d="M15.0173 2.3125H2.196V14.2565H4.03067V18.7112L8.48533 14.2565H15.0173V2.3125ZM13.4173 12.6565H7.82267L5.63067 14.8485V12.6565H3.796V3.9125H13.4173V12.6565ZM21.804 5.28983V17.2338H19.9693V21.6885L15.5147 17.2338H10.0347V15.6338H16.1773L18.3693 17.8258V15.6338H20.204V6.88983H16.1427V5.28983H21.804ZM7.756 9.88317H8.952V11.0565H7.756V9.88317ZM7.12 6.95383L6.944 7.01383V5.78983L7.036 5.75917C7.55067 5.59117 8.04133 5.50583 8.49467 5.50583C9.06667 5.50583 9.51733 5.64183 9.836 5.90983C10.1613 6.18317 10.3253 6.57517 10.3253 7.0725C10.3253 7.2645 10.3 7.43917 10.2507 7.59117C10.2 7.74717 10.112 7.9005 9.98933 8.0485C9.872 8.1885 9.708 8.3485 9.50133 8.52183L9.13333 8.82583C9.04267 8.89783 9.00533 8.94717 8.99067 8.9765C8.96933 9.01783 8.95867 9.07383 8.95867 9.14317V9.37783H7.75733V9.14317C7.75733 8.87917 7.79733 8.65783 7.87867 8.4885C7.95867 8.31917 8.09867 8.15117 8.296 7.98983L8.66267 7.68583C8.856 7.52983 8.936 7.4325 8.968 7.37917C9.01067 7.30983 9.032 7.2205 9.032 7.11517C9.032 6.9605 8.992 6.85383 8.908 6.79117C8.816 6.72183 8.648 6.6845 8.424 6.6845C8.24667 6.6845 8.05333 6.70583 7.85067 6.74717C7.644 6.78983 7.39867 6.85917 7.12267 6.9525L7.12 6.95383Z"/>
</svg>
