<svg width="32" height="32" viewBox="0 0 32 32" fill="none" xmlns="http://www.w3.org/2000/svg">
<rect x="5" y="6" width="22" height="18" fill="white"/>
<path d="M27 3H5C3.895 3 3 3.895 3 5V27C3 28.105 3.895 29 5 29H27C28.105 29 29 28.105 29 27V5C29 3.895 28.105 3 27 3ZM11 26C10.448 26 10 25.552 10 25C10 24.448 10.448 24 11 24C11.552 24 12 24.448 12 25C12 25.552 11.552 26 11 26ZM16 26C15.448 26 15 25.552 15 25C15 24.448 15.448 24 16 24C16.552 24 17 24.448 17 25C17 25.552 16.552 26 16 26ZM21 26C20.448 26 20 25.552 20 25C20 24.448 20.448 24 21 24C21.552 24 22 24.448 22 25C22 25.552 21.552 26 21 26ZM16 21.387C14.799 21.387 13.654 21.182 12.607 20.817L7.909 21.996C7.801 22.023 7.705 21.923 7.735 21.816L8.753 18.242C7.656 16.967 7 15.398 7 13.694C7 9.445 11.029 6 16 6C20.971 6 25 9.445 25 13.694C25 17.943 20.971 21.388 16 21.388V21.387Z" fill="url(#paint0_linear_8758_8359)"/>
<path d="M18.667 12.69H18.653C18.657 12.642 18.667 12.596 18.667 12.547V11.687C18.667 10.211 17.471 9.011 16 9.011C14.529 9.011 13.333 10.211 13.333 11.687V12.547C13.333 12.596 13.344 12.642 13.347 12.69H13.333C12.965 12.69 12.666 12.989 12.666 13.359V16.704C12.666 17.073 12.964 17.373 13.333 17.373H18.666C19.034 17.373 19.333 17.073 19.333 16.704V13.359C19.333 12.989 19.036 12.69 18.667 12.69ZM17.334 12.547C17.334 12.598 17.32 12.644 17.305 12.69H14.696C14.681 12.644 14.667 12.598 14.667 12.547V11.687C14.667 10.949 15.265 10.349 16 10.349C16.735 10.349 17.333 10.949 17.333 11.687L17.334 12.547Z" fill="url(#paint1_linear_8758_8359)"/>
<circle cx="11" cy="25" r="1" fill="#4AA24D"/>
<circle cx="16" cy="25" r="1" fill="#4AA24D"/>
<circle cx="21" cy="25" r="1" fill="#4AA24D"/>
<defs>
<linearGradient id="paint0_linear_8758_8359" x1="16" y1="3" x2="16" y2="29" gradientUnits="userSpaceOnUse">
<stop stop-color="#474747"/>
<stop offset="1" stop-color="#323232"/>
</linearGradient>
<linearGradient id="paint1_linear_8758_8359" x1="16" y1="3" x2="16" y2="29" gradientUnits="userSpaceOnUse">
<stop stop-color="#474747"/>
<stop offset="1" stop-color="#323232"/>
</linearGradient>
</defs>
</svg>
