<?xml version="1.0" encoding="UTF-8"?>
<svg viewBox="0 0 24 24" version="1.1" xmlns="http://www.w3.org/2000/svg" xmlns:xlink="http://www.w3.org/1999/xlink">
    <path d="M20.9997896,11.9944635 C20.9673076,7.18557951 17.2050482,3.2408936 12.4313561,3.01055897 C7.65766404,2.78022434 3.53756633,6.34457995 3.04795642,11.1282726 C2.55834652,15.9119653 5.8699966,20.2464797 10.5901408,21 L10.5901408,14.6206591 L8.31021768,14.6206591 L8.31021768,11.9944635 L10.5901408,11.9944635 L10.5901408,9.98205317 C10.4986653,9.0406766 10.8257958,8.10681194 11.4836901,7.43122354 C12.1415844,6.75563514 13.0628207,6.40755807 14.0000257,6.48045911 C14.6702042,6.49097402 15.3386836,6.55151253 15.9999583,6.66157604 L15.9999583,8.92553772 L14.8699964,8.92553772 C14.4776116,8.87091217 14.0820407,9.00072302 13.7971033,9.27761911 C13.512166,9.55451521 13.3694595,9.94779095 13.4100456,10.344287 L13.4100456,12.0347118 L15.8999616,12.0347118 L15.4999751,14.6609073 L13.4100456,14.6609073 L13.4100456,21 C17.8044352,20.2986947 21.0299971,16.4714358 20.9997896,11.9944635 L20.9997896,11.9944635 Z" id="Icon"></path>
</svg>