<?xml version="1.0" encoding="UTF-8"?>
<svg width="40px" height="40px" viewBox="0 0 40 40" version="1.1" xmlns="http://www.w3.org/2000/svg" xmlns:xlink="http://www.w3.org/1999/xlink">
    <title>Illustration/Umbau/Weiss</title>
    <g id="Illustration/Umbau/Weiss" stroke="none" stroke-width="1" fill-rule="evenodd">
        <g id="Group" fill-rule="nonzero">
            <g id="Original">
                <path d="M35,20 C35,28.2842712 28.2842712,35 20,35 C17.4010685,35 14.9565122,34.3390415 12.8252556,33.1760492 L10,36 L10,28 L18,28 L15.8220235,30.1788082 C17.1102008,30.7081153 18.5210137,31 20,31 C26.0751322,31 31,26.0751322 31,20 C31,19.8088245 30.9951231,19.6187881 30.9854868,19.4300084 L34.7498304,17.2573203 C34.9141294,18.1465293 35,19.0632366 35,20 Z M30,4 L30,12 L22,12 L24.1789763,9.82160274 C22.8905293,9.2920358 21.4793689,9 20,9 C13.9248678,9 9,13.9248678 9,20 C9,20.1911755 9.00487694,20.3812119 9.0145132,20.5699916 L5.25035417,22.7436784 C5.08593488,21.8541571 5,20.9371141 5,20 C5,11.7157288 11.7157288,5 20,5 C22.5993364,5 25.0442495,5.66116445 27.1757404,6.82449434 L30,4 Z" id="Gold-500" opacity="0.6"></path>
                <path d="M20,14 L26,19 L24,19 L24,25 L16,25 L16,19 L14,19 L20,14 Z" id="Gold-600"></path>
            </g>
        </g>
    </g>
</svg>